<?xml version="1.0" encoding="UTF-8" standalone="no"?>
<svg
   xmlns:dc="http://purl.org/dc/elements/1.1/"
   xmlns:cc="http://creativecommons.org/ns#"
   xmlns:rdf="http://www.w3.org/1999/02/22-rdf-syntax-ns#"
   xmlns:svg="http://www.w3.org/2000/svg"
   xmlns="http://www.w3.org/2000/svg"
   xmlns:xlink="http://www.w3.org/1999/xlink"
   width="1024"
   height="512"
   viewBox="0 0 1024 512.00001"
   id="svg6265"
   version="1.1">
  <defs
     id="defs6267" />
  <metadata
     id="metadata6270">
    <rdf:RDF>
      <cc:Work
         rdf:about="">
        <dc:format>image/svg+xml</dc:format>
        <dc:type
           rdf:resource="http://purl.org/dc/dcmitype/StillImage" />
        <dc:title></dc:title>
      </cc:Work>
    </rdf:RDF>
  </metadata>
  <a
     transform="translate(72.743169,-16.786885)"
     xlink:title="RFSA Zone of Control"
     id="a4176">
    <circle
       r="64"
       cy="382.93906"
       cx="676.48737"
       id="circle4152"
       style="opacity:0.5;fill:#f44336;fill-opacity:1;stroke:none;stroke-width:4;stroke-linecap:round;stroke-linejoin:miter;stroke-miterlimit:4;stroke-dasharray:none;stroke-dashoffset:0;stroke-opacity:1" />
  </a>
  <a
     xlink:title="NASA Zone of Control"
     id="a4164">
    <circle
       style="opacity:0.5;fill:#2196f3;fill-opacity:1;stroke:none;stroke-width:4;stroke-linecap:round;stroke-linejoin:miter;stroke-miterlimit:4;stroke-dasharray:none;stroke-dashoffset:0;stroke-opacity:1"
       id="path4133"
       cx="256.48737"
       cy="267.93906"
       r="64" />
  </a>
  <a
     xlink:title="NASA Mining Outpost"
     id="a4167">
    <path
       style="font-style:normal;font-variant:normal;font-weight:normal;font-stretch:normal;font-size:30px;line-height:100%;font-family:Montserrat;-inkscape-font-specification:Montserrat;text-align:start;letter-spacing:0px;word-spacing:0px;text-anchor:start;fill:#2196f3;fill-opacity:1;stroke:#000000;stroke-width:0.99999994;stroke-linecap:butt;stroke-linejoin:miter;stroke-opacity:1"
       d="m 245.86209,241.76523 -6.46255,6.50095 -1.49922,-1.53786 -4.819,4.8233 1.60635,1.53787 -6.49516,6.53357 6.91418,6.95766 6.45789,-6.53824 11.63073,11.78094 -6.25304,6.29126 -11.06732,9.5068 6.42528,6.46367 9.42846,-11.18446 6.21577,-6.29124 6.24836,6.29124 9.42844,11.18446 6.46255,-6.46367 -11.14185,-9.5068 -6.21577,-6.25864 11.6307,-11.77628 10.50865,10.79766 c -0.81481,-9.22718 -2.02537,-15.15493 -3.6317,-17.78793 l 1.53648,-1.53787 -4.74912,-4.8233 -1.5365,1.57047 -6.4253,-6.53356 -6.91417,6.99028 6.42529,6.5336 -11.62606,11.71104 -11.63072,-11.74369 6.42528,-6.50095 -6.87693,-6.99028 z"
       id="text4138" />
  </a>
  <a
     transform="translate(72.743169,-16.786885)"
     xlink:title="RFSA Research Outpost"
     id="a4179">
    <path
       style="font-style:normal;font-variant:normal;font-weight:normal;font-stretch:normal;font-size:30px;line-height:100%;font-family:'Droid Sans';-inkscape-font-specification:'Droid Sans';text-align:start;letter-spacing:0px;word-spacing:0px;text-anchor:start;fill:#f44336;fill-opacity:1;stroke:#000000;stroke-width:1;stroke-linecap:butt;stroke-linejoin:miter;stroke-opacity:1"
       d="m 676.48888,359.43905 c -1.73204,0 -3.20799,1.27372 -4.49594,3.33446 l -0.002,0.004 -0.002,0.004 c -1.16633,1.89777 -2.02964,4.53089 -2.70781,7.74393 -2.93163,-0.97 -5.52813,-1.53926 -7.70508,-1.53926 l -0.22241,0 -0.008,0 c -2.4689,0.043 -4.34794,0.68181 -5.22321,2.21357 l -0.004,0.006 -0.004,0.008 c -0.30309,0.55105 -0.44307,1.18001 -0.44307,1.83051 0,1.17167 0.41773,2.41313 1.17033,3.7687 6.8e-4,9.1e-4 9.4e-4,0.003 0.002,0.004 1.05746,1.95505 2.87667,3.99563 5.25674,6.13937 -2.41984,2.17925 -4.26033,4.23316 -5.32029,6.17644 l -0.004,0.006 -0.004,0.008 c -0.7082,1.35201 -1.10149,2.56394 -1.10149,3.6928 0,0.65051 0.13999,1.27946 0.44307,1.83052 l 0.002,0.004 0.004,0.004 c 0.74638,1.32422 2.03082,2.13591 3.51274,2.18531 1.21341,0.0404 1.81342,0.0618 2.03527,0.0618 2.139,0 4.69973,-0.57742 7.60093,-1.55867 0.67454,3.12625 1.52361,5.72431 2.65308,7.63273 l 0.002,0.006 0.004,0.004 c 1.28726,2.12399 2.7882,3.43332 4.55951,3.43332 1.75826,0 3.24044,-1.31413 4.50653,-3.43862 l 0,-0.002 0.002,-0.002 c 1.1313,-1.9115 1.97989,-4.51357 2.65486,-7.64684 2.9504,0.97356 5.53969,1.54454 7.68742,1.54454 0.18143,0 0.79591,-0.0133 1.98762,-0.0335 l 0.008,0 0.007,0 c 1.46152,-0.0495 2.72724,-0.86229 3.47214,-2.17473 0.33154,-0.55699 0.48896,-1.20435 0.48896,-1.87993 0,-1.12887 -0.39543,-2.33316 -1.10501,-3.66632 l -0.004,-0.008 -0.004,-0.008 c -1.08183,-1.94733 -2.93708,-4.00036 -5.37326,-6.17291 2.38249,-2.14469 4.21813,-4.19192 5.30971,-6.15878 l 0,-0.002 c 0.75408,-1.33615 1.17562,-2.55879 1.17562,-3.71575 0,-0.67559 -0.15741,-1.3247 -0.48896,-1.8817 -0.87963,-1.53034 -2.76606,-2.16369 -5.24969,-2.20651 l -0.007,0 -0.21888,0 c -2.17193,0 -4.7685,0.56691 -7.70684,1.5322 -0.67874,-3.21014 -1.54278,-5.84122 -2.70781,-7.73687 -1.26587,-2.05972 -2.71669,-3.34153 -4.43594,-3.34153 z m 0,3.35211 c 0.21839,0 0.47783,0.0881 0.85083,0.43778 0.373,0.34969 0.8118,0.95186 1.25682,1.80402 l 0.002,0.002 0.002,0.004 c 0.78671,1.48791 1.44532,3.7517 1.96643,6.59832 -1.36619,0.53772 -2.72593,1.12356 -4.0776,1.78639 -1.38573,-0.66506 -2.76572,-1.25262 -4.14115,-1.79168 0.52136,-2.84304 1.18336,-5.10531 1.96996,-6.59303 l 0,-0.004 0.002,-0.002 c 0.44379,-0.84983 0.88565,-1.44975 1.26564,-1.79873 0.38,-0.34898 0.65434,-0.44307 0.90378,-0.44307 z m -14.9406,9.30614 c 0.15491,0 0.32927,0.008 0.52426,0.0247 l 0.0177,0.002 0.0195,0.002 c 1.7014,0.0859 3.94729,0.6427 6.58417,1.58515 -0.20801,1.45989 -0.37715,2.93946 -0.48366,4.44831 -1.26082,0.85809 -2.45498,1.74777 -3.60452,2.65839 -2.15133,-1.81298 -3.76567,-3.48665 -4.69366,-4.9302 l -0.002,-0.004 -0.002,-0.004 c -0.71721,-1.09467 -1.00439,-1.94854 -1.00439,-2.44304 0,-0.23806 0.0497,-0.40358 0.1465,-0.56487 l 0.008,-0.0177 0.008,-0.0123 c 0.10245,-0.18626 0.27528,-0.34998 0.67431,-0.49778 0.39903,-0.14779 1.00875,-0.24714 1.80755,-0.24714 z m 29.85298,0 c 1.59761,0 2.2945,0.3718 2.51716,0.75904 0.0748,0.13134 0.12356,0.29268 0.12356,0.54897 0,0.4976 -0.28642,1.36538 -1.00439,2.48012 l -0.002,0.004 -0.002,0.002 c -0.92718,1.45946 -2.55156,3.14137 -4.72189,4.95669 -1.15006,-0.91169 -2.34183,-1.80412 -3.60453,-2.66369 -0.10812,-1.52528 -0.28589,-3.01147 -0.50838,-4.47478 2.63779,-0.94167 4.90034,-1.49723 6.64067,-1.58339 l 0.0177,-0.002 0.0195,-0.002 c 0.19453,-0.0177 0.36906,-0.0247 0.52427,-0.0247 z m -10.34581,2.8508 c 0.0375,0.31708 0.0678,0.63964 0.10062,0.96028 -0.14111,-0.0887 -0.28263,-0.17329 -0.42365,-0.26303 l -0.0229,-0.0141 -0.0229,-0.0141 c -0.17602,-0.0978 -0.33994,-0.18342 -0.51367,-0.2789 0.29458,-0.13106 0.59044,-0.26372 0.88259,-0.39011 z m -9.19314,0.0195 c 0.29247,0.12333 0.58931,0.25373 0.88436,0.38305 -0.16535,0.093 -0.32599,0.1767 -0.49248,0.27184 l -0.0141,0.008 -0.0123,0.008 c -0.15704,0.097 -0.30969,0.18832 -0.46601,0.2842 0.0329,-0.31919 0.0631,-0.64066 0.10062,-0.95498 z m 4.57185,2.1659 0,0.002 c 0.86068,0.4524 1.72152,0.91236 2.58249,1.39451 0.83844,0.47922 1.65372,0.9797 2.46244,1.48806 0.044,0.96549 0.0742,1.93939 0.0742,2.93729 0,0.9787 -0.0303,1.94238 -0.0742,2.90376 -0.79538,0.50784 -1.60644,1.0087 -2.46244,1.48807 l -0.008,0.006 -0.008,0.006 c -0.83886,0.49645 -1.67667,0.96028 -2.51364,1.41215 -0.86259,-0.45077 -1.71343,-0.9145 -2.53129,-1.40862 l -0.0159,-0.008 -0.0177,-0.0106 c -0.87043,-0.4779 -1.68355,-0.97664 -2.47834,-1.48277 -0.0294,-0.96281 -0.0512,-1.9272 -0.0512,-2.90553 0,-0.99632 0.0217,-1.97126 0.0512,-2.93729 0.81023,-0.50801 1.63044,-1.00929 2.4854,-1.48807 l 0.008,-0.004 0.007,-0.004 c 0.82151,-0.47921 1.65521,-0.9372 2.49246,-1.38744 z m 0.0547,2.61426 c -0.54854,0 -1.08901,0.14606 -1.57279,0.41129 -0.50853,0.25917 -0.938,0.66815 -1.21798,1.1721 -0.2752,0.49539 -0.41659,1.05619 -0.41659,1.62398 0,0.55475 0.14551,1.10252 0.41659,1.59045 l 0.006,0.008 0.006,0.0106 c 0.28373,0.48235 0.7003,0.87548 1.18974,1.14737 0.48794,0.2711 1.03568,0.41659 1.59044,0.41659 0.54248,0 1.07818,-0.14963 1.55867,-0.41659 0.48943,-0.27189 0.90424,-0.66502 1.18797,-1.14737 l 0.006,-0.0106 0.006,-0.008 c 0.26859,-0.48346 0.42189,-1.02967 0.42189,-1.59045 0,-0.57353 -0.14917,-1.13306 -0.42189,-1.62398 -0.28019,-0.50434 -0.7107,-0.91297 -1.21975,-1.1721 -0.47542,-0.26017 -1.00234,-0.41129 -1.53748,-0.41129 z m -8.44117,2.6072 c -9.4e-4,0.20108 -0.007,0.39824 -0.007,0.60017 0,0.19385 0.006,0.38848 0.007,0.58252 -0.27297,-0.19535 -0.54859,-0.39008 -0.81374,-0.58782 0.26499,-0.20139 0.541,-0.39717 0.81374,-0.59487 z m 16.84703,0.008 c 0.27161,0.19518 0.54493,0.38903 0.81023,0.58781 -0.26516,0.19497 -0.5387,0.38636 -0.81023,0.57899 0.003,-0.19128 0.0141,-0.38238 0.0141,-0.57369 0,-0.19987 -0.0117,-0.39421 -0.0141,-0.59311 z m -20.31916,2.69371 c 1.16537,0.9121 2.37018,1.80425 3.63453,2.66368 0.10647,1.50765 0.27585,2.98602 0.48366,4.44477 -2.68803,0.95862 -4.96246,1.51515 -6.65831,1.58516 l -0.48719,0 c -1.59475,0 -2.30558,-0.37244 -2.52247,-0.73433 -0.0769,-0.1366 -0.12179,-0.28874 -0.12179,-0.51544 0,-0.47292 0.28311,-1.33798 0.98498,-2.45716 l 0.004,-0.006 0.004,-0.008 c 0.86829,-1.43013 2.47841,-3.12502 4.67953,-4.97434 z m 23.76305,0 c 2.20517,1.8507 3.83089,3.54777 4.71837,4.98139 l 0.004,0.006 0.004,0.006 c 0.69809,1.09431 0.97792,1.94807 0.97792,2.45186 0,0.22523 -0.0459,0.37598 -0.1218,0.5119 -0.21696,0.36431 -0.92201,0.73786 -2.51893,0.73786 l -0.4872,0 c -1.69639,-0.07 -3.98017,-0.62574 -6.68655,-1.58515 0.20772,-1.45818 0.37543,-2.936 0.48189,-4.44301 1.26498,-0.86042 2.46548,-1.75341 3.62924,-2.66545 z m -16.57871,4.89666 c 0.16819,0.099 0.32309,0.20404 0.49426,0.30185 0.16566,0.0974 0.33811,0.182 0.50484,0.27713 -0.29956,0.13336 -0.59966,0.26868 -0.89672,0.39718 -0.0381,-0.32232 -0.0691,-0.65015 -0.10238,-0.97616 z m 9.39614,0.0159 c -0.0328,0.32064 -0.0632,0.6432 -0.10062,0.96027 -0.29215,-0.12638 -0.58801,-0.25904 -0.8826,-0.39011 0.17373,-0.0955 0.33765,-0.18112 0.51367,-0.27891 l 0.008,-0.006 0.0106,-0.008 c 0.15424,-0.0907 0.29774,-0.18722 0.45013,-0.2789 z m -4.72543,2.48716 c 1.3717,0.66642 2.75103,1.26491 4.13761,1.81816 -0.50353,2.77256 -1.1539,5.009 -1.94524,6.54008 l -0.002,0.004 -0.002,0.004 c -0.43459,0.85972 -0.86827,1.46789 -1.24269,1.81991 -0.37443,0.35203 -0.64201,0.44484 -0.8879,0.44484 -0.26117,0 -0.54383,-0.0983 -0.92849,-0.45189 -0.38466,-0.35361 -0.82734,-0.96102 -1.27095,-1.81992 -0.79168,-1.53176 -1.44163,-3.7693 -1.94524,-6.54361 1.36882,-0.55242 2.7322,-1.14918 4.08643,-1.81463 z"
       id="text4158" />
  </a>
  <a
     xlink:title="CNSA Zone of Control"
     id="a4173">
    <circle
       r="64"
       cy="166.43904"
       cx="521.48737"
       id="circle4163"
       style="opacity:0.5;fill:#ffeb3b;fill-opacity:1;stroke:none;stroke-width:4;stroke-linecap:round;stroke-linejoin:miter;stroke-miterlimit:4;stroke-dasharray:none;stroke-dashoffset:0;stroke-opacity:1" />
  </a>
  <a
     xlink:title="CNSA Mining Outpost"
     id="a4170">
    <path
       id="path4167"
       d="m 512.74443,144.90068 -5.32224,5.34901 -1.23468,-1.26536 -3.96868,3.96863 1.32291,1.26537 -5.34909,5.37585 5.69417,5.72479 5.31839,-5.37969 9.57847,9.69341 -5.14968,5.17647 -9.11448,7.82225 5.29153,5.31832 7.7648,-9.20261 5.11899,-5.17647 5.14584,5.17647 7.76478,9.20261 5.32223,-5.31832 -9.17586,-7.82225 -5.119,-5.14964 9.57846,-9.68956 8.65439,8.88435 c -0.67104,-7.59215 -1.66799,-12.46953 -2.99088,-14.63598 l 1.26536,-1.26537 -3.91113,-3.96863 -1.26538,1.2922 -5.29155,-5.37585 -5.69416,5.75163 5.29154,5.37588 -9.57464,9.63589 -9.57847,-9.66276 5.29154,-5.34901 -5.66348,-5.75163 z"
       style="font-style:normal;font-variant:normal;font-weight:normal;font-stretch:normal;font-size:30px;line-height:100%;font-family:Montserrat;-inkscape-font-specification:Montserrat;text-align:start;letter-spacing:0px;word-spacing:0px;text-anchor:start;fill:#ffeb3b;fill-opacity:1;stroke:#000000;stroke-width:0.99999994;stroke-linecap:butt;stroke-linejoin:miter;stroke-opacity:1" />
  </a>
</svg>
