<?xml version="1.0" encoding="UTF-8" standalone="no"?>
<svg
   xmlns:dc="http://purl.org/dc/elements/1.1/"
   xmlns:cc="http://creativecommons.org/ns#"
   xmlns:rdf="http://www.w3.org/1999/02/22-rdf-syntax-ns#"
   xmlns:svg="http://www.w3.org/2000/svg"
   xmlns="http://www.w3.org/2000/svg"
   xmlns:xlink="http://www.w3.org/1999/xlink"
   version="1.1"
   id="svg6265"
   viewBox="0 0 1024 512.00001"
   height="512"
   width="1024">
  <defs
     id="defs6267" />
  <metadata
     id="metadata6270">
    <rdf:RDF>
      <cc:Work
         rdf:about="">
        <dc:format>image/svg+xml</dc:format>
        <dc:type
           rdf:resource="http://purl.org/dc/dcmitype/StillImage" />
        <dc:title></dc:title>
      </cc:Work>
    </rdf:RDF>
  </metadata>
  <g
     transform="translate(0,-540.36216)"
     id="layer1">
    <a
       style="opacity:0.5;fill:#f44336;fill-opacity:1"
       transform="translate(365,140)"
       id="a4150"
       xlink:title="Russia">
      <circle
         r="94.954338"
         cy="752.34686"
         cx="342.44171"
         id="circle4152"
         style="opacity:1;fill:#f44336;fill-opacity:1;stroke:none;stroke-width:4;stroke-linecap:round;stroke-linejoin:miter;stroke-miterlimit:4;stroke-dasharray:none;stroke-dashoffset:0;stroke-opacity:1" />
    </a>
    <a
       transform="translate(-55,25)"
       style="opacity:0.5;fill:#2196f3;fill-opacity:1"
       xlink:title="United States"
       id="a4135">
      <circle
         style="opacity:1;fill:#2196f3;fill-opacity:1;stroke:none;stroke-width:4;stroke-linecap:round;stroke-linejoin:miter;stroke-miterlimit:4;stroke-dasharray:none;stroke-dashoffset:0;stroke-opacity:1"
         id="path4133"
         cx="342.44171"
         cy="752.34686"
         r="94.954338" />
    </a>
    <a
       transform="translate(-55,25)"
       style="stroke:#000000"
       xlink:title="Mining Outpost (United States)"
       id="a4147">
      <path
         style="font-style:normal;font-variant:normal;font-weight:normal;font-stretch:normal;font-size:30px;line-height:100%;font-family:Montserrat;-inkscape-font-specification:Montserrat;text-align:start;letter-spacing:0px;word-spacing:0px;text-anchor:start;fill:#2196f3;fill-opacity:1;stroke:#000000;stroke-width:1px;stroke-linecap:butt;stroke-linejoin:miter;stroke-opacity:1"
         d="m 333.03077,729.2878 -5.70162,5.73036 -1.32269,-1.35557 -4.25158,4.25156 1.41721,1.35558 -5.73038,5.75911 6.10006,6.13293 5.6975,-5.76323 10.26125,10.38448 -5.51676,5.54552 -9.76419,8.37991 5.66873,5.69748 8.31829,-9.85869 5.48389,-5.54551 5.51264,5.54551 8.31828,9.85869 5.70161,-5.69748 -9.82994,-8.37991 -5.48389,-5.51677 10.26123,-10.38036 9.2713,9.51774 c -0.71887,-8.13342 -1.78689,-13.35852 -3.20408,-15.67942 l 1.35556,-1.35558 -4.18993,-4.25156 -1.35558,1.38432 -5.66874,-5.75911 -6.10006,6.16168 5.66874,5.75914 -10.25714,10.32286 -10.26125,-10.35164 5.66873,-5.73036 -6.06719,-6.16168 z"
         id="text4138" />
    </a>
    <a
       transform="translate(-55,25)"
       xlink:title="Scientific Outpost (Russia)"
       id="a4172">
      <path
         style="font-style:normal;font-variant:normal;font-weight:normal;font-stretch:normal;font-size:30px;line-height:100%;font-family:'Droid Sans';-inkscape-font-specification:'Droid Sans';text-align:start;letter-spacing:0px;word-spacing:0px;text-anchor:start;fill:#f44336;fill-opacity:1;stroke:#000000;stroke-width:1px;stroke-linecap:butt;stroke-linejoin:miter;stroke-opacity:1"
         d="m 762.44182,842.34511 c -1.84274,0 -3.41301,1.35512 -4.78327,3.54755 l -0.002,0.004 -0.002,0.004 c -1.24087,2.01905 -2.15935,4.82043 -2.88086,8.2388 -3.11899,-1.03199 -5.88142,-1.63762 -8.1975,-1.63762 l -0.23662,0 -0.008,0 c -2.62668,0.0457 -4.62581,0.72537 -5.55702,2.35502 l -0.004,0.006 -0.004,0.008 c -0.32245,0.58627 -0.47138,1.25542 -0.47138,1.94749 0,1.24654 0.44442,2.56734 1.24512,4.00954 7.3e-4,9.6e-4 10e-4,0.003 0.002,0.004 1.12504,2.07998 3.06051,4.25096 5.59269,6.5317 -2.57449,2.31851 -4.5326,4.50368 -5.6603,6.57114 l -0.004,0.006 -0.004,0.008 c -0.75346,1.43841 -1.17188,2.72779 -1.17188,3.92879 0,0.69208 0.14893,1.36122 0.47138,1.94749 l 0.002,0.004 0.004,0.004 c 0.79408,1.40885 2.16061,2.27241 3.73723,2.32496 1.29096,0.043 1.92932,0.0657 2.16534,0.0657 2.2757,0 5.00008,-0.61432 8.08669,-1.65828 0.71765,3.32604 1.62098,6.09012 2.82264,8.1205 l 0.002,0.006 0.004,0.004 c 1.36952,2.25972 2.96638,3.65272 4.85089,3.65272 1.87063,0 3.44753,-1.3981 4.79454,-3.65836 l 0,-0.002 0.002,-0.002 c 1.2036,-2.03365 2.10642,-4.80201 2.82452,-8.13551 3.13896,1.03578 5.89372,1.64325 8.17871,1.64325 0.19302,0 0.84678,-0.0142 2.11464,-0.0357 l 0.009,0 0.007,0 c 1.55492,-0.0527 2.90153,-0.91739 3.69403,-2.3137 0.35273,-0.59259 0.52021,-1.28131 0.52021,-2.00007 0,-1.20101 -0.4207,-2.48226 -1.17563,-3.90061 l -0.004,-0.008 -0.004,-0.008 c -1.15097,-2.07177 -3.12478,-4.256 -5.71665,-6.56739 2.53475,-2.28174 4.4877,-4.4598 5.64904,-6.55235 l 0,-0.002 c 0.80227,-1.42153 1.25075,-2.72231 1.25075,-3.9532 0,-0.71876 -0.16747,-1.40935 -0.52021,-2.00195 -0.93584,-1.62813 -2.94283,-2.30196 -5.58518,-2.34751 l -0.007,0 -0.23287,0 c -2.31074,0 -5.07325,0.60313 -8.19937,1.63011 -0.72212,-3.41528 -1.64138,-6.2145 -2.88086,-8.23129 -1.34677,-2.19135 -2.89031,-3.55507 -4.71943,-3.55507 z m 0,3.56633 c 0.23234,0 0.50836,0.0937 0.9052,0.46575 0.39684,0.37204 0.86368,1.01269 1.33714,1.91931 l 0.002,0.002 0.002,0.004 c 0.83699,1.58299 1.53769,3.99145 2.0921,7.01998 -1.4535,0.57208 -2.90014,1.19536 -4.33819,1.90055 -1.47429,-0.70756 -2.94247,-1.33267 -4.4058,-1.90618 0.55468,-3.02472 1.25898,-5.43156 2.09585,-7.01435 l 0,-0.004 0.002,-0.002 c 0.47216,-0.90414 0.94225,-1.5424 1.34653,-1.91368 0.40428,-0.37128 0.69616,-0.47138 0.96154,-0.47138 z m -15.89543,9.90084 c 0.16481,0 0.35032,0.008 0.55777,0.0263 l 0.0188,0.002 0.0207,0.002 c 1.81013,0.0914 4.19955,0.68377 7.00495,1.68645 -0.2213,1.55318 -0.40125,3.1273 -0.51457,4.73257 -1.34139,0.91293 -2.61187,1.85946 -3.83488,2.82828 -2.28881,-1.92884 -4.00632,-3.70947 -4.99362,-5.24527 l -0.002,-0.004 -0.002,-0.004 c -0.76304,-1.16462 -1.06858,-2.07306 -1.06858,-2.59916 0,-0.25327 0.0529,-0.42937 0.15587,-0.60096 l 0.009,-0.0188 0.008,-0.0131 c 0.10899,-0.19816 0.29287,-0.37235 0.7174,-0.52959 0.42453,-0.15723 1.07322,-0.26293 1.92307,-0.26293 z m 31.76082,0 c 1.69971,0 2.44114,0.39556 2.67803,0.80754 0.0796,0.13974 0.13146,0.31139 0.13146,0.58406 0,0.5294 -0.30473,1.45263 -1.06858,2.63861 l -0.002,0.004 -0.002,0.002 c -0.98644,1.55272 -2.71463,3.34211 -5.02366,5.27344 -1.22356,-0.96995 -2.49149,-1.91941 -3.83489,-2.83391 -0.11503,-1.62275 -0.30416,-3.20392 -0.54087,-4.76074 2.80637,-1.00184 5.21351,-1.59291 7.06506,-1.68457 l 0.0188,-0.002 0.0207,-0.002 c 0.20696,-0.0188 0.39264,-0.0263 0.55777,-0.0263 z m -11.00699,3.03298 c 0.0399,0.33734 0.0721,0.68051 0.10705,1.02164 -0.15012,-0.0944 -0.30069,-0.18436 -0.45072,-0.27983 l -0.0244,-0.015 -0.0244,-0.015 c -0.18727,-0.10403 -0.36167,-0.19514 -0.5465,-0.29672 0.31341,-0.13944 0.62817,-0.28057 0.939,-0.41504 z m -9.78065,0.0207 c 0.31116,0.13121 0.62697,0.26995 0.94088,0.40753 -0.17592,0.0989 -0.34682,0.18799 -0.52396,0.28921 l -0.015,0.009 -0.0131,0.008 c -0.16708,0.10319 -0.32949,0.20036 -0.49579,0.30236 0.035,-0.33958 0.0671,-0.6816 0.10704,-1.016 z m 4.86403,2.30431 0,0.002 c 0.91568,0.48131 1.83154,0.97066 2.74753,1.48363 0.89202,0.50984 1.7594,1.0423 2.61981,1.58315 0.0468,1.02719 0.0789,2.06333 0.0789,3.125 0,1.04124 -0.0322,2.0665 -0.0789,3.08932 -0.84621,0.54029 -1.70911,1.07316 -2.61981,1.58316 l -0.009,0.006 -0.009,0.006 c -0.89247,0.52818 -1.78382,1.02165 -2.67428,1.5024 -0.91772,-0.47958 -1.82293,-0.97295 -2.69306,-1.49864 l -0.0169,-0.009 -0.0188,-0.0113 c -0.92605,-0.50844 -1.79114,-1.03905 -2.63672,-1.57753 -0.0313,-1.02433 -0.0545,-2.05035 -0.0545,-3.0912 0,-1.05999 0.0231,-2.09723 0.0545,-3.125 0.86201,-0.54047 1.73464,-1.07378 2.64423,-1.58316 l 0.008,-0.004 0.007,-0.004 c 0.87401,-0.50984 1.76099,-0.99709 2.65174,-1.47611 z m 0.0582,2.78132 c -0.58359,0 -1.1586,0.1554 -1.6733,0.43758 -0.54103,0.27573 -0.99795,0.71084 -1.29582,1.247 -0.29279,0.52705 -0.44321,1.12368 -0.44321,1.72776 0,0.5902 0.15481,1.17297 0.44321,1.69209 l 0.006,0.009 0.006,0.0113 c 0.30187,0.51318 0.74506,0.93143 1.26578,1.2207 0.51912,0.28842 1.10187,0.44321 1.69208,0.44321 0.57715,0 1.14708,-0.15919 1.65828,-0.44321 0.52071,-0.28927 0.96203,-0.70752 1.26389,-1.2207 l 0.006,-0.0113 0.006,-0.009 c 0.28576,-0.51436 0.44885,-1.09548 0.44885,-1.69209 0,-0.61018 -0.1587,-1.20547 -0.44885,-1.72776 -0.29809,-0.53657 -0.75612,-0.97131 -1.2977,-1.247 -0.5058,-0.2768 -1.0664,-0.43758 -1.63574,-0.43758 z m -8.98062,2.77382 c -10e-4,0.21392 -0.007,0.42368 -0.007,0.63852 0,0.20624 0.006,0.4133 0.007,0.61974 -0.29042,-0.20783 -0.58365,-0.415 -0.86575,-0.62538 0.28193,-0.21426 0.57558,-0.42255 0.86575,-0.63288 z m 17.92368,0.008 c 0.28897,0.20765 0.57976,0.41389 0.86201,0.62537 -0.2821,0.20743 -0.57312,0.41105 -0.86201,0.61599 0.003,-0.20351 0.015,-0.40682 0.015,-0.61035 0,-0.21265 -0.0125,-0.4194 -0.015,-0.63101 z m -21.61771,2.86584 c 1.23985,0.97039 2.52165,1.91955 3.86681,2.83391 0.11327,1.60399 0.29348,3.17683 0.51457,4.72881 -2.85982,1.01988 -5.2796,1.61197 -7.08383,1.68645 l -0.51833,0 c -1.69666,0 -2.45292,-0.39624 -2.68367,-0.78125 -0.0818,-0.14533 -0.12958,-0.30719 -0.12958,-0.54838 0,-0.50314 0.30121,-1.42348 1.04793,-2.61418 l 0.004,-0.006 0.004,-0.008 c 0.92378,-1.52152 2.6368,-3.32472 4.97859,-5.29222 z m 25.2817,0 c 2.34609,1.96897 4.07571,3.77449 5.01991,5.29973 l 0.004,0.006 0.004,0.006 c 0.7427,1.16424 1.04041,2.07256 1.04041,2.60854 0,0.23962 -0.0488,0.40001 -0.12958,0.54462 -0.23083,0.38759 -0.98093,0.78501 -2.67991,0.78501 l -0.51833,0 c -1.80481,-0.0745 -4.23454,-0.66573 -7.11388,-1.68645 0.221,-1.55136 0.39942,-3.12362 0.51269,-4.72694 1.34582,-0.9154 2.62304,-1.86546 3.86118,-2.83578 z m -17.63822,5.20958 c 0.17893,0.10531 0.34373,0.21708 0.52584,0.32114 0.17625,0.1036 0.35972,0.19363 0.53711,0.29484 -0.31871,0.14188 -0.63799,0.28585 -0.95403,0.42256 -0.0405,-0.34291 -0.0735,-0.69169 -0.10892,-1.03854 z m 9.99662,0.0169 c -0.0349,0.34113 -0.0672,0.6843 -0.10705,1.02163 -0.31082,-0.13445 -0.62559,-0.27559 -0.939,-0.41504 0.18483,-0.10156 0.35923,-0.19269 0.5465,-0.29673 l 0.009,-0.006 0.0113,-0.008 c 0.16409,-0.0965 0.31676,-0.19919 0.47889,-0.29672 z m -5.02742,2.6461 c 1.45936,0.709 2.92684,1.34574 4.40204,1.93435 -0.53571,2.94973 -1.22765,5.32909 -2.06956,6.95801 l -0.002,0.004 -0.002,0.004 c -0.46236,0.91466 -0.92376,1.5617 -1.32211,1.93622 -0.39836,0.37452 -0.68304,0.47326 -0.94464,0.47326 -0.27786,0 -0.57859,-0.10457 -0.98783,-0.48077 -0.40924,-0.3762 -0.88021,-1.02243 -1.35217,-1.93622 -0.84228,-1.62964 -1.53376,-4.01017 -2.06956,-6.96177 1.4563,-0.58772 2.90681,-1.22262 4.34759,-1.93059 z"
         id="text4158" />
    </a>
    <a
       transform="translate(210,-76.5)"
       id="a4161"
       xlink:title="China"
       style="opacity:0.5;fill:#ffeb3b;fill-opacity:1">
      <circle
         r="94.954338"
         cy="752.34686"
         cx="342.44171"
         id="circle4163"
         style="opacity:1;fill:#ffeb3b;fill-opacity:1;stroke:none;stroke-width:4;stroke-linecap:round;stroke-linejoin:miter;stroke-miterlimit:4;stroke-dasharray:none;stroke-dashoffset:0;stroke-opacity:1" />
    </a>
    <a
       transform="translate(210,-76.5)"
       id="a4165"
       xlink:title="Mining Outpost (China)"
       style="fill:#ffeb3b;stroke:#000000">
      <path
         id="path4167"
         d="m 333.03077,729.2878 -5.70162,5.73036 -1.32269,-1.35557 -4.25158,4.25156 1.41721,1.35558 -5.73038,5.75911 6.10006,6.13293 5.6975,-5.76323 10.26125,10.38448 -5.51676,5.54552 -9.76419,8.37991 5.66873,5.69748 8.31829,-9.85869 5.48389,-5.54551 5.51264,5.54551 8.31828,9.85869 5.70161,-5.69748 -9.82994,-8.37991 -5.48389,-5.51677 10.26123,-10.38036 9.2713,9.51774 c -0.71887,-8.13342 -1.78689,-13.35852 -3.20408,-15.67942 l 1.35556,-1.35558 -4.18993,-4.25156 -1.35558,1.38432 -5.66874,-5.75911 -6.10006,6.16168 5.66874,5.75914 -10.25714,10.32286 -10.26125,-10.35164 5.66873,-5.73036 -6.06719,-6.16168 z"
         style="font-style:normal;font-variant:normal;font-weight:normal;font-stretch:normal;font-size:30px;line-height:100%;font-family:Montserrat;-inkscape-font-specification:Montserrat;text-align:start;letter-spacing:0px;word-spacing:0px;text-anchor:start;fill:#ffeb3b;fill-opacity:1;stroke:#000000;stroke-width:1px;stroke-linecap:butt;stroke-linejoin:miter;stroke-opacity:1" />
    </a>
  </g>
</svg>
