<?xml version="1.0" encoding="UTF-8" standalone="no"?>
<!-- Created with Inkscape (http://www.inkscape.org/) -->

<svg
   xmlns:dc="http://purl.org/dc/elements/1.1/"
   xmlns:cc="http://creativecommons.org/ns#"
   xmlns:rdf="http://www.w3.org/1999/02/22-rdf-syntax-ns#"
   xmlns:svg="http://www.w3.org/2000/svg"
   xmlns="http://www.w3.org/2000/svg"
   xmlns:sodipodi="http://sodipodi.sourceforge.net/DTD/sodipodi-0.dtd"
   xmlns:inkscape="http://www.inkscape.org/namespaces/inkscape"
   width="1024"
   height="512"
   viewBox="0 0 1024 512.00001"
   id="svg6265"
   version="1.1"
   inkscape:version="0.91 r13725"
   sodipodi:docname="nosurface.svg">
  <defs
     id="defs6267" />
  <sodipodi:namedview
     id="base"
     pagecolor="#ffffff"
     bordercolor="#666666"
     borderopacity="1.0"
     inkscape:pageopacity="0.0"
     inkscape:pageshadow="2"
     inkscape:zoom="0.98994949"
     inkscape:cx="451.63096"
     inkscape:cy="201.30788"
     inkscape:document-units="px"
     inkscape:current-layer="layer1"
     showgrid="false"
     units="px"
     inkscape:window-width="1920"
     inkscape:window-height="1057"
     inkscape:window-x="-8"
     inkscape:window-y="-8"
     inkscape:window-maximized="1" />
  <metadata
     id="metadata6270">
    <rdf:RDF>
      <cc:Work
         rdf:about="">
        <dc:format>image/svg+xml</dc:format>
        <dc:type
           rdf:resource="http://purl.org/dc/dcmitype/StillImage" />
        <dc:title />
      </cc:Work>
    </rdf:RDF>
  </metadata>
  <g
     inkscape:label="Layer 1"
     inkscape:groupmode="layer"
     id="layer1"
     transform="translate(0,-540.36216)">
    <path
       style="font-style:normal;font-variant:normal;font-weight:normal;font-stretch:normal;font-size:60px;line-height:100%;font-family:'OCR A Extended';-inkscape-font-specification:'OCR A Extended';text-align:start;letter-spacing:0px;word-spacing:0px;text-anchor:start;fill:#000000;fill-opacity:1;stroke:none;stroke-width:1px;stroke-linecap:butt;stroke-linejoin:miter;stroke-opacity:1"
       d="M 227.66016 236.5332 L 227.66016 273.00781 C 227.66016 273.69141 227.89453 274.27734 228.36328 274.76562 C 228.85156 275.23438 229.4375 275.46875 230.12109 275.46875 C 230.80469 275.46875 231.37891 275.23438 231.84766 274.76562 C 232.33594 274.27734 232.58203 273.69141 232.58203 273.00781 L 232.58203 245.23438 L 245.82422 275.46875 L 252.44531 275.46875 L 252.44531 239.05273 C 252.44531 238.34961 252.19922 237.75391 251.71094 237.26562 C 251.24219 236.77734 250.66797 236.5332 249.98438 236.5332 C 249.30078 236.5332 248.70312 236.78711 248.19531 237.29492 C 247.70703 237.7832 247.46484 238.36914 247.46484 239.05273 L 247.46484 266.70898 L 234.19141 236.5332 L 227.66016 236.5332 z M 276.23438 236.5332 C 273.53906 236.5332 271.57422 237.73438 270.34375 240.13672 L 264.89453 251.18164 C 264.17188 252.62695 263.8125 254.25781 263.8125 256.07422 C 263.8125 257.89062 264.17188 259.51172 264.89453 260.9375 L 270.34375 271.86523 C 270.87109 272.90039 271.65234 273.75977 272.6875 274.44336 C 273.74219 275.12695 274.92578 275.46875 276.23438 275.46875 C 278.98828 275.46875 280.94141 274.26758 282.09375 271.86523 L 287.51172 260.9375 C 288.27344 259.41406 288.65625 257.79297 288.65625 256.07422 C 288.65625 254.31641 288.27344 252.68555 287.51172 251.18164 L 282.09375 240.13672 C 280.92188 237.73438 278.96875 236.5332 276.23438 236.5332 z M 341.85938 236.5332 C 340.31641 236.5332 338.99609 237.09961 337.90234 238.23242 C 336.80859 239.3457 336.26172 240.66406 336.26172 242.1875 C 336.26172 243.49609 336.69141 244.70703 337.55078 245.82031 L 355.77344 269.16992 C 356.02734 269.48242 356.15625 269.73633 356.15625 269.93164 C 356.15625 270.3418 355.89062 270.54688 355.36328 270.54688 L 343.11719 270.54688 C 342.57031 270.54688 342.11328 270.37109 341.74219 270.01953 C 341.39062 269.66797 341.21484 269.22852 341.21484 268.70117 C 341.21484 268.05664 340.98047 267.5 340.51172 267.03125 C 340.04297 266.54297 339.47656 266.29883 338.8125 266.29883 C 337.09375 266.29883 336.23438 267.2168 336.23438 269.05273 C 336.23438 270.6543 336.87891 272.12891 338.16797 273.47656 C 339.47656 274.80469 341.00781 275.46875 342.76562 275.46875 L 356.03906 275.46875 C 357.34766 275.46875 358.52734 274.91211 359.58203 273.79883 C 360.65625 272.68555 361.19531 271.39648 361.19531 269.93164 C 361.19531 268.64258 360.75391 267.43164 359.875 266.29883 L 341.625 242.94922 C 341.37109 242.63672 341.24219 242.36328 341.24219 242.12891 C 341.24219 241.75781 341.53516 241.57227 342.12109 241.57227 L 354.28125 241.57227 C 355.25781 241.57227 355.88281 242.08984 356.15625 243.125 C 356.44922 244.16016 356.75 244.87305 357.0625 245.26367 C 357.375 245.63477 357.95312 245.82031 358.79297 245.82031 C 359.39844 245.82031 359.94531 245.57617 360.43359 245.08789 C 360.94141 244.59961 361.19531 244.00391 361.19531 243.30078 C 361.19531 241.42578 360.49219 239.83398 359.08594 238.52539 C 357.69922 237.19727 356.22266 236.5332 354.66016 236.5332 L 341.85938 236.5332 z M 374.90625 236.5332 C 374.24219 236.5332 373.66406 236.78711 373.17578 237.29492 C 372.6875 237.7832 372.44531 238.36914 372.44531 239.05273 L 372.44531 268.08594 C 372.44531 270.11719 373.16797 271.85547 374.61328 273.30078 C 376.05859 274.74609 377.79688 275.46875 379.82812 275.46875 L 389.90625 275.46875 C 391.91797 275.46875 393.64453 274.73633 395.08984 273.27148 C 396.55469 271.80664 397.28906 270.05859 397.28906 268.02734 L 397.28906 239.05273 C 397.28906 238.34961 397.04297 237.75391 396.55469 237.26562 C 396.08594 236.77734 395.51172 236.5332 394.82812 236.5332 C 394.14453 236.5332 393.55859 236.77734 393.07031 237.26562 C 392.60156 237.75391 392.36719 238.34961 392.36719 239.05273 L 392.36719 268.08594 C 392.36719 268.75 392.12109 269.31641 391.63281 269.78516 C 391.16406 270.25391 390.58984 270.48828 389.90625 270.48828 L 379.82812 270.48828 C 379.16406 270.48828 378.58594 270.25391 378.09766 269.78516 C 377.60938 269.29688 377.36719 268.73047 377.36719 268.08594 L 377.36719 238.99414 C 377.36719 238.33008 377.12109 237.75391 376.63281 237.26562 C 376.14453 236.77734 375.57031 236.5332 374.90625 236.5332 z M 408.77344 236.5332 L 408.77344 273.00781 C 408.77344 273.69141 409.00781 274.27734 409.47656 274.76562 C 409.96484 275.23438 410.55078 275.46875 411.23438 275.46875 C 411.91797 275.46875 412.50391 275.23438 412.99219 274.76562 C 413.5 274.27734 413.75391 273.69141 413.75391 273.00781 L 413.75391 254.22852 L 417.29688 254.22852 L 428.87109 274.15039 C 429.37891 275.0293 430.12109 275.46875 431.09766 275.46875 C 431.74219 275.46875 432.31641 275.23438 432.82422 274.76562 C 433.33203 274.27734 433.58594 273.70117 433.58594 273.03711 C 433.58594 272.5293 433.42969 272.02148 433.11719 271.51367 L 423.03906 254.22852 L 426.17578 254.22852 C 428.20703 254.22852 429.94531 253.50586 431.39062 252.06055 C 432.83594 250.5957 433.55859 248.83789 433.55859 246.78711 L 433.55859 243.97461 C 433.55859 241.94336 432.82422 240.19531 431.35938 238.73047 C 429.91406 237.26562 428.1875 236.5332 426.17578 236.5332 L 408.77344 236.5332 z M 444.92578 236.5332 L 444.92578 273.00781 C 444.92578 273.69141 445.16016 274.27734 445.62891 274.76562 C 446.11719 275.23438 446.70312 275.46875 447.38672 275.46875 C 448.07031 275.46875 448.64453 275.23438 449.11328 274.76562 C 449.60156 274.27734 449.84766 273.69141 449.84766 273.00781 L 449.84766 254.16992 L 462.32812 254.16992 C 463.01172 254.16992 463.58594 253.93555 464.05469 253.4668 C 464.54297 252.97852 464.78906 252.39258 464.78906 251.70898 C 464.78906 251.02539 464.54297 250.44922 464.05469 249.98047 C 463.58594 249.49219 463.01172 249.24805 462.32812 249.24805 L 449.84766 249.24805 L 449.84766 241.51367 L 467.25 241.51367 C 467.91406 241.51367 468.48828 241.26953 468.97656 240.78125 C 469.46484 240.27344 469.71094 239.67773 469.71094 238.99414 C 469.71094 238.33008 469.45703 237.75391 468.94922 237.26562 C 468.46094 236.77734 467.89453 236.5332 467.25 236.5332 L 444.92578 236.5332 z M 493.70312 236.5332 C 492.45312 236.5332 491.63281 237.14844 491.24219 238.37891 L 481.28125 272.04102 C 481.18359 272.35352 481.13672 272.65625 481.13672 272.94922 C 481.13672 273.65234 481.37109 274.24805 481.83984 274.73633 C 482.30859 275.22461 482.90234 275.46875 483.625 275.46875 C 484.13281 275.46875 484.60156 275.33203 485.03125 275.05859 C 485.46094 274.76562 485.70703 274.46289 485.76562 274.15039 L 487.93359 267.00195 L 499.15234 267.00195 L 501.14453 273.68164 C 501.49609 274.87305 502.31641 275.46875 503.60547 275.46875 C 504.21094 275.46875 504.75 275.23438 505.21875 274.76562 C 505.6875 274.27734 505.92188 273.69141 505.92188 273.00781 C 505.92188 272.77344 505.88281 272.5293 505.80469 272.27539 L 495.98828 238.08594 C 495.67578 237.05078 494.91406 236.5332 493.70312 236.5332 z M 530.17969 236.5332 C 529.10547 236.5332 527.99219 236.92383 526.83984 237.70508 C 525.6875 238.4668 524.83594 239.35547 524.28906 240.37109 L 518.54688 251.24023 C 517.82422 252.58789 517.46484 254.17969 517.46484 256.01562 C 517.46484 257.67578 517.84375 259.29688 518.60547 260.87891 L 524.28906 271.86523 C 524.77734 272.7832 525.64844 273.61328 526.89844 274.35547 C 528.14844 275.09766 529.35938 275.46875 530.53125 275.46875 L 539.73047 275.46875 C 540.41406 275.46875 541 275.23438 541.48828 274.76562 C 541.99609 274.27734 542.25 273.69141 542.25 273.00781 C 542.25 272.32422 541.99609 271.74805 541.48828 271.2793 C 541 270.79102 540.41406 270.54688 539.73047 270.54688 L 530.85156 270.54688 C 529.73828 270.54688 528.9375 270.0293 528.44922 268.99414 L 523.23438 258.97461 C 522.76562 258.0957 522.53125 257.08008 522.53125 255.92773 C 522.53125 254.83398 522.74609 253.88672 523.17578 253.08594 L 528.625 242.89062 C 529.11328 241.97266 529.75 241.51367 530.53125 241.51367 L 539.90625 241.51367 C 540.58984 241.51367 541.16406 241.26953 541.63281 240.78125 C 542.12109 240.27344 542.36719 239.67773 542.36719 238.99414 C 542.36719 238.33008 542.12109 237.75391 541.63281 237.26562 C 541.16406 236.77734 540.58984 236.5332 539.90625 236.5332 L 530.17969 236.5332 z M 553.55859 236.5332 L 553.55859 275.46875 L 575.88281 275.46875 C 576.56641 275.46875 577.15234 275.23438 577.64062 274.76562 C 578.14844 274.27734 578.40234 273.69141 578.40234 273.00781 C 578.40234 272.32422 578.15625 271.74805 577.66797 271.2793 C 577.17969 270.79102 576.60547 270.54688 575.94141 270.54688 L 558.48047 270.54688 L 558.48047 258.47656 L 565.98047 258.47656 C 566.66406 258.47656 567.23828 258.23242 567.70703 257.74414 C 568.19531 257.25586 568.44141 256.66016 568.44141 255.95703 C 568.44141 255.29297 568.19531 254.7168 567.70703 254.22852 C 567.21875 253.74023 566.64453 253.49609 565.98047 253.49609 L 558.48047 253.49609 L 558.48047 241.51367 L 575.88281 241.51367 C 576.56641 241.51367 577.15234 241.26953 577.64062 240.78125 C 578.14844 240.29297 578.40234 239.7168 578.40234 239.05273 C 578.40234 238.36914 578.14844 237.7832 577.64062 237.29492 C 577.15234 236.78711 576.56641 236.5332 575.88281 236.5332 L 553.55859 236.5332 z M 625.98047 236.5332 L 625.98047 273.00781 C 625.98047 273.69141 626.21484 274.27734 626.68359 274.76562 C 627.17188 275.23438 627.75781 275.46875 628.44141 275.46875 C 629.125 275.46875 629.69922 275.23438 630.16797 274.76562 C 630.65625 274.27734 630.90234 273.69141 630.90234 273.00781 L 630.90234 254.16992 L 643.38281 254.16992 C 644.06641 254.16992 644.64062 253.93555 645.10938 253.4668 C 645.59766 252.97852 645.84375 252.39258 645.84375 251.70898 C 645.84375 251.02539 645.59766 250.44922 645.10938 249.98047 C 644.64062 249.49219 644.06641 249.24805 643.38281 249.24805 L 630.90234 249.24805 L 630.90234 241.51367 L 648.30469 241.51367 C 648.96875 241.51367 649.54297 241.26953 650.03125 240.78125 C 650.51953 240.27344 650.76562 239.67773 650.76562 238.99414 C 650.76562 238.33008 650.51172 237.75391 650.00391 237.26562 C 649.51562 236.77734 648.94922 236.5332 648.30469 236.5332 L 625.98047 236.5332 z M 674.55469 236.5332 C 671.85938 236.5332 669.89453 237.73438 668.66406 240.13672 L 663.21484 251.18164 C 662.49219 252.62695 662.13281 254.25781 662.13281 256.07422 C 662.13281 257.89062 662.49219 259.51172 663.21484 260.9375 L 668.66406 271.86523 C 669.19141 272.90039 669.97266 273.75977 671.00781 274.44336 C 672.0625 275.12695 673.24609 275.46875 674.55469 275.46875 C 677.30859 275.46875 679.26172 274.26758 680.41406 271.86523 L 685.83203 260.9375 C 686.59375 259.41406 686.97656 257.79297 686.97656 256.07422 C 686.97656 254.31641 686.59375 252.68555 685.83203 251.18164 L 680.41406 240.13672 C 679.24219 237.73438 677.28906 236.5332 674.55469 236.5332 z M 700.80469 236.5332 C 700.14062 236.5332 699.5625 236.78711 699.07422 237.29492 C 698.58594 237.7832 698.34375 238.36914 698.34375 239.05273 L 698.34375 268.08594 C 698.34375 270.11719 699.06641 271.85547 700.51172 273.30078 C 701.95703 274.74609 703.69531 275.46875 705.72656 275.46875 L 715.80469 275.46875 C 717.81641 275.46875 719.54297 274.73633 720.98828 273.27148 C 722.45312 271.80664 723.1875 270.05859 723.1875 268.02734 L 723.1875 239.05273 C 723.1875 238.34961 722.94141 237.75391 722.45312 237.26562 C 721.98438 236.77734 721.41016 236.5332 720.72656 236.5332 C 720.04297 236.5332 719.45703 236.77734 718.96875 237.26562 C 718.5 237.75391 718.26562 238.34961 718.26562 239.05273 L 718.26562 268.08594 C 718.26562 268.75 718.01953 269.31641 717.53125 269.78516 C 717.0625 270.25391 716.48828 270.48828 715.80469 270.48828 L 705.72656 270.48828 C 705.0625 270.48828 704.48438 270.25391 703.99609 269.78516 C 703.50781 269.29688 703.26562 268.73047 703.26562 268.08594 L 703.26562 238.99414 C 703.26562 238.33008 703.01953 237.75391 702.53125 237.26562 C 702.04297 236.77734 701.46875 236.5332 700.80469 236.5332 z M 734.61328 236.5332 L 734.61328 273.00781 C 734.61328 273.69141 734.84766 274.27734 735.31641 274.76562 C 735.80469 275.23438 736.39062 275.46875 737.07422 275.46875 C 737.75781 275.46875 738.33203 275.23438 738.80078 274.76562 C 739.28906 274.27734 739.53516 273.69141 739.53516 273.00781 L 739.53516 245.23438 L 752.77734 275.46875 L 759.39844 275.46875 L 759.39844 239.05273 C 759.39844 238.34961 759.15234 237.75391 758.66406 237.26562 C 758.19531 236.77734 757.62109 236.5332 756.9375 236.5332 C 756.25391 236.5332 755.65625 236.78711 755.14844 237.29492 C 754.66016 237.7832 754.41797 238.36914 754.41797 239.05273 L 754.41797 266.70898 L 741.14453 236.5332 L 734.61328 236.5332 z M 773.22656 236.5332 C 772.54297 236.5332 771.95703 236.77734 771.46875 237.26562 C 771 237.75391 770.76562 238.33008 770.76562 238.99414 C 770.76562 239.67773 771 240.27344 771.46875 240.78125 C 771.95703 241.26953 772.54297 241.51367 773.22656 241.51367 L 775.74609 241.51367 L 775.74609 270.48828 L 773.16797 270.48828 C 772.48438 270.48828 771.89844 270.74219 771.41016 271.25 C 770.94141 271.73828 770.70703 272.32422 770.70703 273.00781 C 770.70703 273.67188 770.94141 274.24805 771.41016 274.73633 C 771.89844 275.22461 772.48438 275.46875 773.16797 275.46875 L 782.57031 275.46875 C 784.01562 275.46875 785.32422 275.09766 786.49609 274.35547 C 787.66797 273.59375 788.56641 272.58789 789.19141 271.33789 L 794.08594 261.61133 C 795.0625 259.7168 795.55078 257.87109 795.55078 256.07422 C 795.55078 254.14062 795.08984 252.28516 794.17188 250.50781 L 789.30859 240.66406 C 788.74219 239.53125 787.85547 238.56445 786.64453 237.76367 C 785.45312 236.96289 784.22266 236.55273 782.95312 236.5332 L 773.22656 236.5332 z M 177.70703 240.69336 C 177.17969 240.69336 176.65234 240.86914 176.125 241.2207 L 156.73047 252.67578 C 155.73438 253.26172 155.23828 254.04297 155.23828 255.01953 L 155.23828 256.92383 C 155.23828 257.93945 155.73438 258.7207 156.73047 259.26758 L 176.125 270.72266 C 176.69141 271.07422 177.21875 271.25 177.70703 271.25 C 178.33203 271.25 178.89062 271.00586 179.37891 270.51758 C 179.88672 270.0293 180.14062 269.43359 180.14062 268.73047 C 180.14062 267.8125 179.77734 267.11914 179.05469 266.65039 L 160.92188 255.95703 L 179.05469 245.23438 C 179.77734 244.80469 180.14062 244.13086 180.14062 243.21289 C 180.14062 242.50977 179.88672 241.91406 179.37891 241.42578 C 178.89062 240.9375 178.33203 240.69336 177.70703 240.69336 z M 846.32031 240.69336 C 845.69531 240.69336 845.12891 240.92773 844.62109 241.39648 C 844.13281 241.86523 843.89062 242.46094 843.89062 243.18359 C 843.89062 244.12109 844.26172 244.82422 845.00391 245.29297 L 863.10938 255.95703 L 845.00391 266.70898 C 844.26172 267.13867 843.89062 267.82227 843.89062 268.75977 C 843.89062 269.48242 844.13281 270.07812 844.62109 270.54688 C 845.12891 271.01562 845.69531 271.25 846.32031 271.25 C 846.82812 271.25 847.36719 271.07422 847.93359 270.72266 L 867.32812 259.26758 C 868.28516 258.70117 868.76172 257.91992 868.76172 256.92383 L 868.76172 255.01953 C 868.76172 254.02344 868.28516 253.24219 867.32812 252.67578 L 847.93359 241.2207 C 847.34766 240.86914 846.80859 240.69336 846.32031 240.69336 z M 276.23438 241.45508 C 276.9375 241.45508 277.45312 241.83594 277.78516 242.59766 L 282.94141 252.96875 C 283.42969 253.92578 283.67578 254.94141 283.67578 256.01562 C 283.67578 257.03125 283.42969 258.05664 282.94141 259.0918 L 277.66797 269.58008 C 277.33594 270.22461 276.85938 270.54688 276.23438 270.54688 C 275.51172 270.54688 275.01172 270.22461 274.73828 269.58008 L 269.49609 259.0918 C 269.02734 258.11523 268.79297 257.08984 268.79297 256.01562 C 268.79297 255.01953 269.02734 254.00391 269.49609 252.96875 L 274.59375 242.59766 C 274.98438 241.83594 275.53125 241.45508 276.23438 241.45508 z M 674.55469 241.45508 C 675.25781 241.45508 675.77344 241.83594 676.10547 242.59766 L 681.26172 252.96875 C 681.75 253.92578 681.99609 254.94141 681.99609 256.01562 C 681.99609 257.03125 681.75 258.05664 681.26172 259.0918 L 675.98828 269.58008 C 675.65625 270.22461 675.17969 270.54688 674.55469 270.54688 C 673.83203 270.54688 673.33203 270.22461 673.05859 269.58008 L 667.81641 259.0918 C 667.34766 258.11523 667.11328 257.08984 667.11328 256.01562 C 667.11328 255.01953 667.34766 254.00391 667.81641 252.96875 L 672.91406 242.59766 C 673.30469 241.83594 673.85156 241.45508 674.55469 241.45508 z M 413.69531 241.51367 L 426.17578 241.51367 C 426.85938 241.51367 427.43359 241.75781 427.90234 242.24609 C 428.39062 242.71484 428.63672 243.29102 428.63672 243.97461 L 428.63672 246.8457 C 428.63672 247.5293 428.39062 248.11523 427.90234 248.60352 C 427.43359 249.07227 426.85938 249.30664 426.17578 249.30664 L 413.69531 249.30664 L 413.69531 241.51367 z M 780.66797 241.51367 L 782.27734 241.51367 C 783.46875 241.51367 784.32812 242.01172 784.85547 243.00781 L 789.89453 253.02734 C 790.38281 253.98438 790.62891 255 790.62891 256.07422 C 790.62891 256.93359 790.32422 257.99805 789.71875 259.26758 L 784.85547 268.93555 C 784.30859 270.00977 783.48828 270.54688 782.39453 270.54688 L 780.66797 270.54688 L 780.66797 241.51367 z M 493.64453 247.92969 L 497.71875 262.02148 L 489.42578 262.02148 L 493.64453 247.92969 z "
       transform="translate(0,540.36216)"
       id="text4133" />
  </g>
</svg>
