<?xml version="1.0" encoding="UTF-8" standalone="no"?>
<!-- Created with Inkscape (http://www.inkscape.org/) -->

<svg
   xmlns:dc="http://purl.org/dc/elements/1.1/"
   xmlns:cc="http://creativecommons.org/ns#"
   xmlns:rdf="http://www.w3.org/1999/02/22-rdf-syntax-ns#"
   xmlns:svg="http://www.w3.org/2000/svg"
   xmlns="http://www.w3.org/2000/svg"
   xmlns:xlink="http://www.w3.org/1999/xlink"
   xmlns:sodipodi="http://sodipodi.sourceforge.net/DTD/sodipodi-0.dtd"
   xmlns:inkscape="http://www.inkscape.org/namespaces/inkscape"
   width="541.86664mm"
   height="270.93332mm"
   viewBox="0 0 1919.9999 959.99995"
   id="svg4470"
   version="1.1"
   inkscape:version="0.91 r13725"
   inkscape:export-filename="C:\Users\Tristan\Pictures\Solar.png"
   inkscape:export-xdpi="90"
   inkscape:export-ydpi="90"
   sodipodi:docname="SolarSystem.svg">
  <style
     id="style5563">
      @font-face {
          font-family: &quot;OCR A Extended&quot;;
          src: url(&quot;ocraextended.ttf&quot;);
      }
  </style>
  <defs
     id="defs4472" />
  <sodipodi:namedview
     id="base"
     pagecolor="#0d1019"
     bordercolor="#666666"
     borderopacity="1.0"
     inkscape:pageopacity="0"
     inkscape:pageshadow="2"
     inkscape:zoom="0.70710678"
     inkscape:cx="878.66031"
     inkscape:cy="409.93716"
     inkscape:document-units="px"
     inkscape:current-layer="layer1"
     showgrid="false"
     fit-margin-top="0"
     fit-margin-left="0"
     fit-margin-right="0"
     fit-margin-bottom="0"
     inkscape:snap-object-midpoints="true"
     inkscape:object-paths="true"
     inkscape:snap-center="true"
     inkscape:window-width="1920"
     inkscape:window-height="1057"
     inkscape:window-x="-8"
     inkscape:window-y="-8"
     inkscape:window-maximized="1" />
  <metadata
     id="metadata4475">
    <rdf:RDF>
      <cc:Work
         rdf:about="">
        <dc:format>image/svg+xml</dc:format>
        <dc:type
           rdf:resource="http://purl.org/dc/dcmitype/StillImage" />
        <dc:title />
      </cc:Work>
    </rdf:RDF>
  </metadata>
  <g
     inkscape:label="Layer 1"
     inkscape:groupmode="layer"
     id="layer1"
     transform="translate(691.42859,-35.219349)">
    <ellipse
       cy="250.61862"
       cx="-505.71088"
       id="circle5117"
       style="opacity:1;fill:#ffeb3b;fill-opacity:1;stroke:none;stroke-width:4;stroke-linecap:round;stroke-linejoin:miter;stroke-miterlimit:4;stroke-dasharray:none;stroke-dashoffset:0;stroke-opacity:1"
       rx="80.172157"
       ry="80.172203" />
    <ellipse
       style="opacity:1;fill:#fff9c4;fill-opacity:1;stroke:none;stroke-width:4;stroke-linecap:round;stroke-linejoin:miter;stroke-miterlimit:4;stroke-dasharray:none;stroke-dashoffset:0;stroke-opacity:1"
       id="path5029"
       cx="-505.71088"
       cy="250.61862"
       rx="64.137726"
       ry="64.137756" />
    <ellipse
       cy="250.61859"
       cx="-505.71078"
       id="circle5031"
       style="opacity:1;fill:none;fill-opacity:1;stroke:#9e9e9e;stroke-width:3.99999976;stroke-linecap:round;stroke-linejoin:miter;stroke-miterlimit:4;stroke-dasharray:none;stroke-dashoffset:0;stroke-opacity:0.50196078"
       rx="158.74083"
       ry="158.74092" />
    <ellipse
       style="opacity:1;fill:none;fill-opacity:1;stroke:#9e9e9e;stroke-width:3.99999928;stroke-linecap:round;stroke-linejoin:miter;stroke-miterlimit:4;stroke-dasharray:none;stroke-dashoffset:0;stroke-opacity:0.50196078"
       id="circle5033"
       cx="-505.71078"
       cy="250.61859"
       rx="278.99902"
       ry="278.99921" />
    <a
       id="a4252">
      <ellipse
         ry="399.25745"
         rx="399.2572"
         style="opacity:1;fill:none;fill-opacity:1;stroke:#9e9e9e;stroke-width:3.99999976;stroke-linecap:round;stroke-linejoin:miter;stroke-miterlimit:4;stroke-dasharray:none;stroke-dashoffset:0;stroke-opacity:0.50196078"
         id="circle5035"
         cx="-505.71078"
         cy="250.61859" />
    </a>
    <ellipse
       style="opacity:1;fill:none;fill-opacity:1;stroke:#9e9e9e;stroke-width:3.99999976;stroke-linecap:round;stroke-linejoin:miter;stroke-miterlimit:4;stroke-dasharray:none;stroke-dashoffset:0;stroke-opacity:0.50196078"
       id="circle5037"
       cx="-505.71078"
       cy="250.61859"
       rx="519.5155"
       ry="519.51581" />
    <a
       target="_top" xlink:href="mercury.html"
       style="fill:#888888;fill-opacity:1"
       id="a6262">
      <ellipse
         ry="30.064571"
         rx="30.064556"
         style="opacity:1;fill:#888888;fill-opacity:1;stroke:none;stroke-width:4;stroke-linecap:round;stroke-linejoin:miter;stroke-miterlimit:4;stroke-dasharray:none;stroke-dashoffset:0;stroke-opacity:1"
         id="circle5105"
         cx="-521.45465"
         cy="408.57684" />
    </a>
    <a
       target="_top" xlink:href="venus.html"
       id="a6259">
      <ellipse
         ry="40.086102"
         rx="40.086079"
         cy="293.18396"
         cx="-229.97789"
         id="circle5107"
         style="opacity:1;fill:#ffeb3b;fill-opacity:1;stroke:none;stroke-width:4;stroke-linecap:round;stroke-linejoin:miter;stroke-miterlimit:4;stroke-dasharray:none;stroke-dashoffset:0;stroke-opacity:1" />
    </a>
    <a
       target="_top" xlink:href="earth.html"
       id="a6253">
      <ellipse
         ry="40.086102"
         rx="40.086079"
         style="opacity:1;fill:#00bcd4;fill-opacity:1;stroke:none;stroke-width:4;stroke-linecap:round;stroke-linejoin:miter;stroke-miterlimit:4;stroke-dasharray:none;stroke-dashoffset:0;stroke-opacity:1"
         id="circle5119"
         cx="-345.59174"
         cy="616.36218" />
    </a>
    <ellipse
       style="opacity:1;fill:none;fill-opacity:1;stroke:#9e9e9e;stroke-width:3.99999976;stroke-linecap:round;stroke-linejoin:miter;stroke-miterlimit:4;stroke-dasharray:none;stroke-dashoffset:0;stroke-opacity:0.50196078"
       id="circle5121"
       cx="-345.59167"
       cy="616.36218"
       rx="78.568703"
       ry="78.568748" />
    <a
       target="_top" xlink:href="luna.html"
       id="a6256">
      <ellipse
         ry="20.043051"
         rx="20.043039"
         cy="687.26752"
         cx="-379.43671"
         id="circle5123"
         style="opacity:1;fill:#e0e0e0;fill-opacity:1;stroke:none;stroke-width:4;stroke-linecap:round;stroke-linejoin:miter;stroke-miterlimit:4;stroke-dasharray:none;stroke-dashoffset:0;stroke-opacity:1" />
    </a>
    <a
       target="_top" xlink:href="asteroid.html"
       id="a6247">
      <ellipse
         ry="675.85376"
         rx="675.85339"
         transform="matrix(0.95792213,0.2870282,0.28702797,-0.9579222,0,0)"
         style="opacity:1;fill:none;fill-opacity:1;stroke:#795548;stroke-width:63.99999619;stroke-linecap:round;stroke-linejoin:miter;stroke-miterlimit:4;stroke-dasharray:none;stroke-dashoffset:0;stroke-opacity:0.50196078"
         id="circle5127"
         cx="-415.18509"
         cy="-390.21429" />
    </a>
    <a
       target="_top" xlink:href="ceres.html"
       id="a6244">
      <ellipse
         ry="40.086102"
         rx="40.086079"
         style="opacity:1;fill:#e0e0e0;fill-opacity:1;stroke:none;stroke-width:4;stroke-linecap:round;stroke-linejoin:miter;stroke-miterlimit:4;stroke-dasharray:none;stroke-dashoffset:0;stroke-opacity:1"
         id="circle5129"
         cx="-261.46329"
         cy="883.23315" />
    </a>
    <text
       xml:space="preserve"
       style="font-style:normal;font-variant:normal;font-weight:normal;font-stretch:normal;font-size:48.103302px;line-height:100%;font-family:'OCR A Extended';-inkscape-font-specification:'OCR A Extended';text-align:center;letter-spacing:0px;word-spacing:0px;text-anchor:middle;fill:#000000;fill-opacity:1;stroke:none;stroke-width:1px;stroke-linecap:butt;stroke-linejoin:miter;stroke-opacity:1"
       x="-504.98276"
       y="266.22635"
       id="text5131"
       sodipodi:linespacing="100%"><tspan
         sodipodi:role="line"
         id="tspan5133"
         x="-504.98276"
         y="266.22635">Sol</tspan></text>
    <a
       target="_top" xlink:href="mercury.html"
       style="fill:#888888;fill-opacity:1"
       id="a4271">
      <text
         xml:space="preserve"
         style="font-style:normal;font-variant:normal;font-weight:normal;font-stretch:normal;font-size:32.06887054px;line-height:100%;font-family:'OCR A Extended';-inkscape-font-specification:'OCR A Extended';text-align:start;letter-spacing:0px;word-spacing:0px;text-anchor:start;fill:#888888;fill-opacity:1;stroke:none;stroke-width:1px;stroke-linecap:butt;stroke-linejoin:miter;stroke-opacity:1"
         x="-488.28214"
         y="434.36151"
         id="text5135"
         sodipodi:linespacing="100%"><tspan
           sodipodi:role="line"
           id="tspan5137"
           x="-488.28214"
           y="434.36151">Mercury</tspan></text>
    </a>
    <a
       target="_top" xlink:href="venus.html"
       id="a4255">
      <text
         sodipodi:linespacing="100%"
         id="text5139"
         y="303.58902"
         x="-180.24303"
         style="font-style:normal;font-variant:normal;font-weight:normal;font-stretch:normal;font-size:32.06887054px;line-height:100%;font-family:'OCR A Extended';-inkscape-font-specification:'OCR A Extended';text-align:start;letter-spacing:0px;word-spacing:0px;text-anchor:start;fill:#ffeb3b;fill-opacity:1;stroke:none;stroke-width:1px;stroke-linecap:butt;stroke-linejoin:miter;stroke-opacity:1"
         xml:space="preserve"><tspan
           y="303.58902"
           x="-180.24303"
           id="tspan5141"
           sodipodi:role="line">Venus</tspan></text>
    </a>
    <a
       target="_top" xlink:href="earth.html"
       id="a4263">
      <text
         xml:space="preserve"
         style="font-style:normal;font-variant:normal;font-weight:normal;font-stretch:normal;font-size:32.06887054px;line-height:100%;font-family:'OCR A Extended';-inkscape-font-specification:'OCR A Extended';text-align:start;letter-spacing:0px;word-spacing:0px;text-anchor:start;fill:#00bcd4;fill-opacity:1;stroke:none;stroke-width:1px;stroke-linecap:butt;stroke-linejoin:miter;stroke-opacity:1"
         x="-295.85687"
         y="626.76721"
         id="text5143"
         sodipodi:linespacing="100%"><tspan
           sodipodi:role="line"
           id="tspan5145"
           x="-295.85687"
           y="626.76721">Earth</tspan></text>
    </a>
    <a
       target="_top" xlink:href="luna.html"
       id="a4267">
      <text
         sodipodi:linespacing="100%"
         id="text5147"
         y="697.67255"
         x="-409.44183"
         style="font-style:normal;font-variant:normal;font-weight:normal;font-stretch:normal;font-size:32.06887054px;line-height:100%;font-family:'OCR A Extended';-inkscape-font-specification:'OCR A Extended';text-align:end;letter-spacing:0px;word-spacing:0px;text-anchor:end;fill:#e0e0e0;fill-opacity:1;stroke:none;stroke-width:1px;stroke-linecap:butt;stroke-linejoin:miter;stroke-opacity:1"
         xml:space="preserve"><tspan
           y="697.67255"
           x="-409.44183"
           id="tspan5149"
           sodipodi:role="line">Luna</tspan></text>
    </a>
    <a
       target="_top" xlink:href="asteroid.html"
       id="a4326">
      <path
         id="text5155"
         transform="translate(-691.42859,35.219349)"
         d="M 809.75 412.66016 L 801.98438 436.25977 L 808.30273 438.33789 C 808.95208 438.55155 809.58108 438.51335 810.19141 438.2207 C 810.78929 437.9034 811.19454 437.41888 811.4082 436.76953 C 811.62187 436.12019 811.58 435.49998 811.28125 434.9082 C 810.97005 434.29177 810.48919 433.87773 809.83984 433.66406 L 808.19922 433.12305 L 809.75586 428.39258 L 839.67188 438.23633 C 840.32122 438.44999 840.95388 438.40104 841.57031 438.08984 C 842.16819 437.77254 842.57711 437.27923 842.79688 436.61133 C 843.00443 435.98054 842.96062 435.36033 842.66797 434.75 C 842.35677 434.13357 841.87786 433.71952 841.22852 433.50586 L 811.3125 423.66211 L 812.86914 418.92969 L 814.56641 419.48828 C 815.1972 419.69584 815.82107 419.64518 816.4375 419.33398 C 817.06004 419.00423 817.47774 418.51458 817.69141 417.86523 C 817.89897 417.23444 817.8571 416.61424 817.56445 416.00391 C 817.25325 415.38747 816.77239 414.97148 816.12305 414.75781 L 809.75 412.66016 z M 831.50391 459.01562 C 831.18939 459.02935 830.87696 459.11215 830.56641 459.26367 C 829.93419 459.54142 829.49422 459.99779 829.24609 460.63477 L 822.92969 476.85156 L 793.5293 465.39844 C 792.91052 465.1574 792.28456 465.17538 791.65234 465.45312 C 791.02013 465.73087 790.58478 466.1781 790.34375 466.79688 C 790.10272 467.41565 790.12069 468.04162 790.39844 468.67383 C 790.67619 469.30604 791.12341 469.74334 791.74219 469.98438 L 825.73047 483.22266 L 833.83203 462.42188 C 834.08016 461.7849 834.07596 461.15442 833.81641 460.5293 C 833.54575 459.87889 833.09205 459.42781 832.45508 459.17969 C 832.13659 459.05563 831.81843 459.0019 831.50391 459.01562 z M 786.80078 479.46484 C 786.48153 479.45969 786.15915 479.52366 785.83203 479.6543 C 785.16805 479.88972 784.69595 480.31864 784.41406 480.94141 L 775.20703 501.2793 L 810.67773 517.33398 L 819.88477 496.99609 C 820.16666 496.37333 820.19444 495.7436 819.96875 495.10547 C 819.73332 494.44149 819.30441 493.96744 818.68164 493.68555 C 818.05887 493.40366 817.43308 493.38909 816.80469 493.64062 C 816.1585 493.88411 815.69767 494.30909 815.42383 494.91406 L 808.22461 510.82031 L 797.22852 505.84375 L 800.32031 499.00977 C 800.6022 498.387 800.61677 497.76316 800.36523 497.13477 C 800.12175 496.48858 799.67962 496.02041 799.03906 495.73047 C 798.43409 495.45663 797.81025 495.44011 797.16406 495.68359 C 796.51788 495.92708 796.05704 496.35206 795.7832 496.95703 L 792.69141 503.78906 L 781.77344 498.84766 L 788.95117 482.99414 C 789.23306 482.37137 789.25129 481.73798 789.00781 481.0918 C 788.77238 480.42782 788.35302 479.95743 787.74805 479.68359 C 787.43666 479.54265 787.12003 479.47 786.80078 479.46484 z M 774.81055 514.07812 C 773.85825 514.09454 772.89359 514.25677 771.91602 514.56641 C 769.31814 515.37477 767.393 516.98479 766.14258 519.39453 L 759.20703 532.75977 L 793.76758 550.69336 L 800.70312 537.32812 C 801.95354 534.91839 802.16087 532.41766 801.32617 529.82812 C 800.48313 527.21226 798.857 525.27971 796.44727 524.0293 L 794.52344 523.03125 C 791.97501 521.70887 789.25473 521.56263 786.36523 522.59375 C 785.57945 519.65552 783.8956 517.51616 781.3125 516.17578 L 779.4668 515.2168 C 777.94988 514.42966 776.3977 514.05076 774.81055 514.07812 z M 775.28711 519.13867 C 775.91964 519.19184 776.53776 519.37655 777.14453 519.69141 L 778.93945 520.62109 C 780.13565 521.2418 780.94235 522.21074 781.35938 523.52734 C 781.75906 524.83495 781.65273 526.07895 781.04102 527.25781 L 776.42578 536.15039 L 765.8418 530.6582 L 770.45703 521.76562 C 771.07774 520.56942 772.042 519.77078 773.34961 519.37109 C 774.00791 519.16258 774.65457 519.0855 775.28711 519.13867 z M 790.44727 527.00586 C 791.0798 527.05903 791.69792 527.24179 792.30469 527.55664 L 794.125 528.50195 C 795.3212 529.12266 796.1279 530.0916 796.54492 531.4082 C 796.94461 532.71581 796.84023 533.95785 796.22852 535.13672 L 791.64062 543.97852 L 781.0293 538.47266 L 785.61719 529.63281 C 786.2379 528.43661 787.20216 527.63797 788.50977 527.23828 C 789.16807 527.02977 789.81473 526.95269 790.44727 527.00586 z M 735.15625 579.45898 C 734.1985 579.47833 733.21937 579.70029 732.2168 580.125 C 730.89083 580.675 729.86858 581.47444 729.15039 582.52148 L 723.77344 590.62695 C 723.39549 591.19656 723.27326 591.81927 723.41016 592.49609 C 723.55785 593.15665 723.90956 593.66996 724.46289 594.03711 C 725.0325 594.41506 725.65754 594.54928 726.33984 594.43945 C 727.01667 594.30256 727.54392 593.94851 727.92188 593.37891 L 729.31641 591.28125 L 753.45898 607.30078 L 752.0332 609.44922 C 751.65525 610.01883 751.54214 610.64636 751.69531 611.33398 C 751.84301 611.99454 752.20188 612.51463 752.77148 612.89258 C 753.32482 613.25973 753.93553 613.38234 754.60156 613.26172 C 755.27839 613.12482 755.80564 612.77078 756.18359 612.20117 L 761.38281 604.36523 C 762.18191 603.16092 762.59551 601.86533 762.625 600.47852 C 762.63821 599.0809 762.29757 597.77635 761.60156 596.56445 L 756.20117 587.11133 C 755.16248 585.25014 753.89569 583.8216 752.39844 582.82812 C 750.78726 581.75906 748.98656 581.11621 746.99805 580.89844 L 736.10742 579.50781 C 735.79315 579.46922 735.4755 579.45253 735.15625 579.45898 z M 735.1875 584.49805 C 735.32046 584.49471 735.45746 584.49976 735.59766 584.51367 L 746.73242 585.85547 C 747.79984 585.97774 748.78264 586.33576 749.67773 586.92969 C 750.39381 587.40483 751.11285 588.24475 751.83594 589.45117 L 757.20312 598.84961 C 757.79586 599.89922 757.79027 600.87964 757.18555 601.79102 L 756.22852 603.23047 L 732.03711 587.17969 L 732.92773 585.83594 C 733.50411 584.96729 734.25676 584.5214 735.1875 584.49805 z M 717.10938 602.16992 C 716.94579 602.16693 716.77723 602.17995 716.60352 602.20898 C 715.92033 602.30945 715.38655 602.61756 715.00195 603.13477 L 703.11523 619.12109 C 702.70733 619.66965 702.55188 620.28556 702.65234 620.96875 C 702.76446 621.63626 703.10374 622.18005 703.66797 622.59961 C 704.20085 622.99586 704.80308 623.1512 705.47461 623.06641 C 706.1578 622.96594 706.70342 622.6423 707.11133 622.09375 L 711.62109 616.0293 L 734.91992 633.35352 L 730.4082 639.41797 C 730.0003 639.96652 729.8468 640.58244 729.94727 641.26562 C 730.04371 641.92148 730.36746 642.45342 730.91602 642.86133 C 731.46457 643.26924 732.07456 643.43049 732.74609 643.3457 C 733.41361 643.23359 733.95147 642.90402 734.35938 642.35547 L 746.24609 626.36914 C 746.64235 625.83626 746.79768 625.23403 746.71289 624.5625 C 746.61243 623.87931 746.28879 623.33369 745.74023 622.92578 C 745.19168 622.51787 744.58353 622.37031 743.91602 622.48242 C 743.24448 622.56721 742.70478 622.88309 742.29688 623.43164 L 737.85547 629.40234 L 714.55859 612.07812 L 718.99805 606.10742 C 719.3943 605.57454 719.54187 604.96639 719.44141 604.2832 C 719.32527 603.58836 718.99387 603.03681 718.44531 602.62891 C 718.04565 602.33172 717.60014 602.17889 717.10938 602.16992 z M 691.9707 636.38281 C 690.18244 636.42117 688.63428 637.22885 687.32422 638.80664 C 685.60242 640.88031 685.27175 643.1593 686.33398 645.64062 L 691.34961 656.88867 C 691.99994 658.36794 693.0244 659.68731 694.42188 660.84766 C 695.81935 662.008 697.29688 662.76627 698.85547 663.12109 L 710.74414 665.9082 C 711.87742 666.16376 713.03741 666.11167 714.22461 665.75195 C 715.42429 665.3772 716.44335 664.68647 717.2793 663.67969 C 719.03853 661.56094 719.36214 659.29036 718.25 656.86914 L 713.30469 645.71875 C 712.61921 644.15952 711.61531 642.83233 710.29297 641.73438 C 708.94057 640.61146 707.44247 639.86101 705.79883 639.48633 L 693.83789 636.60156 C 693.18867 636.4433 692.56679 636.37003 691.9707 636.38281 z M 692.41406 641.38672 C 692.59179 641.39625 692.78093 641.42854 692.98047 641.48633 L 704.25391 644.14453 C 705.30213 644.38023 706.23994 644.84112 707.06641 645.52734 C 707.84779 646.17614 708.48035 647.0197 708.96484 648.05664 L 713.66602 658.81445 C 713.94979 659.48164 713.89145 660.0543 713.49219 660.53516 C 713.03055 661.09114 712.46352 661.26972 711.79297 661.06836 L 700.375 658.40234 C 699.32423 658.13914 698.38506 657.66474 697.55859 656.97852 C 696.79224 656.3422 696.16103 655.51214 695.66406 654.49023 L 690.94141 643.94336 C 690.6049 643.15623 690.66021 642.49213 691.10938 641.95117 C 691.44625 641.54545 691.88089 641.35813 692.41406 641.38672 z M 672.73438 659.22656 C 670.6776 659.29276 668.96574 660.06429 667.59961 661.54102 L 655.78125 674.31445 L 682.55664 699.08398 C 683.05844 699.5482 683.64747 699.77423 684.32422 699.76172 C 684.99989 699.72161 685.56899 699.45102 686.0332 698.94922 C 686.49742 698.44742 686.72344 697.85839 686.71094 697.18164 C 686.69736 696.47729 686.44125 695.89195 685.93945 695.42773 L 672.1543 682.67578 L 674.56055 680.07422 L 697.04297 685.10742 C 698.03299 685.33151 698.86027 685.086 699.52344 684.36914 C 699.96113 683.89602 700.18088 683.31413 700.18164 682.62305 C 700.16806 681.9187 699.91715 681.33963 699.42969 680.88867 C 699.05692 680.54382 698.57717 680.31467 697.99219 680.19922 L 678.46094 675.85938 L 680.58984 673.55664 C 681.96923 672.06558 682.61852 670.30025 682.53906 668.25781 C 682.44527 666.20211 681.64602 664.47664 680.14062 663.08398 L 678.07617 661.17578 C 676.58511 659.79639 674.80441 659.14603 672.73438 659.22656 z M 672.9668 664.15234 C 673.64247 664.11224 674.23062 664.32289 674.73242 664.78711 L 676.83984 666.73828 C 677.34164 667.2025 677.60597 667.77874 677.63281 668.46875 C 677.65858 669.13116 677.44078 669.71304 676.97656 670.21484 L 668.5 679.37695 L 662.7793 674.08398 L 671.25586 664.92383 C 671.72008 664.42203 672.29005 664.16485 672.9668 664.15234 z M 648.50586 682.86133 C 647.80179 682.83717 647.20526 683.06284 646.71484 683.53906 L 630.69922 699.0918 L 657.82227 727.02539 L 673.83789 711.47266 C 674.32831 710.99643 674.58563 710.42059 674.60938 709.74414 C 674.63353 709.04007 674.40786 708.44159 673.93164 707.95117 C 673.45542 707.46075 672.87998 707.21879 672.20312 707.22266 C 671.51267 707.21251 670.92758 707.43777 670.45117 707.90039 L 657.92578 720.06445 L 649.51562 711.40625 L 654.89648 706.18164 C 655.3869 705.70542 655.63082 705.12803 655.62695 704.45117 C 655.63709 703.76071 655.39803 703.16264 654.9082 702.6582 C 654.44559 702.18179 653.86819 701.93983 653.17773 701.92969 C 652.48727 701.91955 651.90414 702.14481 651.42773 702.60742 L 646.04688 707.83203 L 637.69922 699.23633 L 650.18359 687.11328 C 650.67401 686.63706 650.92541 686.05374 650.93555 685.36328 C 650.9597 684.65922 650.73996 684.06821 650.27734 683.5918 C 649.80112 683.10138 649.21033 682.85786 648.50586 682.86133 z M 623.08594 706.20312 L 604.36133 722.53125 L 608.73242 727.54297 C 609.18169 728.05819 609.74376 728.34631 610.41797 728.40625 C 611.09406 728.43864 611.68986 728.23052 612.20508 727.78125 C 612.7203 727.33198 612.9997 726.7766 613.04492 726.11523 C 613.09203 725.42631 612.89068 724.82382 612.44141 724.30859 L 611.30469 723.00586 L 615.05859 719.73242 L 635.75781 743.46875 C 636.20709 743.98397 636.77592 744.26539 637.46484 744.3125 C 638.14093 744.34489 638.74349 744.13008 639.27344 743.66797 C 639.77394 743.23153 640.05529 742.67616 640.11523 742.00195 C 640.16234 741.31303 639.96099 740.71249 639.51172 740.19727 L 618.8125 716.45898 L 622.56641 713.18555 L 623.74219 714.5332 C 624.17862 715.03371 624.74076 715.30641 625.42969 715.35352 C 626.13333 715.38779 626.74259 715.18169 627.25781 714.73242 C 627.75831 714.29599 628.03771 713.74061 628.09766 713.06641 C 628.14476 712.37748 627.94537 711.77499 627.49609 711.25977 L 623.08594 706.20312 z M 595.30469 731.84766 C 593.70734 731.80572 592.37007 732.20482 591.29297 733.04688 L 581.20703 740.93164 C 579.99144 741.88196 579.30266 743.14093 579.13867 744.70703 C 578.96266 746.25774 579.34296 747.63378 580.28125 748.83398 C 581.08721 749.86493 582.17245 750.55456 583.53516 750.90234 L 612.27148 758.07422 C 612.66399 758.16403 612.92072 758.28558 613.04102 758.43945 C 613.29363 758.76258 613.21233 759.08537 612.79688 759.41016 L 603.14844 766.95312 C 602.7176 767.28995 602.24717 767.43513 601.73828 767.38672 C 601.24478 767.32628 600.83651 767.08733 600.51172 766.67188 C 600.11475 766.1641 599.58768 765.86965 598.92969 765.78906 C 598.25966 765.69309 597.66184 765.85077 597.13867 766.25977 C 595.7846 767.31834 595.67393 768.56923 596.80469 770.01562 C 597.79109 771.27737 599.20716 772.04276 601.05273 772.31055 C 602.90167 772.55091 604.5175 772.12951 605.90234 771.04688 L 616.35938 762.87305 C 617.39032 762.06708 617.97781 760.90165 618.12305 759.375 C 618.28367 757.83632 617.91196 756.48998 617.00977 755.33594 C 616.21583 754.32038 615.1245 753.6363 613.73438 753.28516 L 584.97461 746.13086 C 584.58211 746.04105 584.31232 745.90535 584.16797 745.7207 C 583.93941 745.42835 584.05596 745.10111 584.51758 744.74023 L 594.09766 737.25195 C 594.86702 736.65049 595.67828 736.6732 596.53125 737.32031 C 597.39961 737.95539 598.07572 738.33004 598.5625 738.44531 C 599.03725 738.5452 599.60593 738.33757 600.26758 737.82031 C 600.74458 737.4474 601.02543 736.91783 601.10938 736.23242 C 601.20871 735.53498 601.04243 734.90941 600.60938 734.35547 C 599.45456 732.8783 597.9197 732.05741 596.00586 731.89258 C 595.76705 731.86855 595.53288 731.85365 595.30469 731.84766 z M 559.87891 757.03711 C 559.41848 757.04314 558.94161 757.21959 558.44531 757.56641 C 557.4207 758.28241 557.09975 759.25592 557.48438 760.48828 L 568.60156 793.78711 C 568.70052 794.0992 568.83414 794.37509 569.00195 794.61523 C 569.40471 795.19158 569.93764 795.546 570.60156 795.67773 C 571.26548 795.80947 571.89397 795.66785 572.48633 795.25391 C 572.90258 794.96303 573.20871 794.58354 573.4043 794.11328 C 573.58869 793.62701 573.61535 793.23894 573.48438 792.94922 L 571.16602 785.84766 L 580.36328 779.41992 L 585.82227 783.75391 C 586.79288 784.52912 587.80665 784.54698 588.86328 783.80859 C 589.35958 783.46178 589.66552 782.96328 589.78125 782.31055 C 589.88579 781.6418 589.74313 781.02713 589.35156 780.4668 C 589.21731 780.27468 589.04541 780.09697 588.83594 779.93359 L 561.20703 757.5293 C 560.78248 757.19454 560.33933 757.03108 559.87891 757.03711 z M 564.92383 766.94141 L 576.33398 776.16016 L 569.53906 780.9082 L 564.92383 766.94141 z "
         style="font-style:normal;font-variant:normal;font-weight:normal;font-stretch:normal;font-size:60px;line-height:100%;font-family:'OCR A Extended';-inkscape-font-specification:'OCR A Extended';text-align:end;letter-spacing:0px;word-spacing:0px;text-anchor:end;fill:#ffffff;fill-opacity:1;stroke:none;stroke-width:1px;stroke-linecap:butt;stroke-linejoin:miter;stroke-opacity:1" />
    </a>
    <a
       target="_top" xlink:href="ceres.html"
       id="a4275">
      <text
         xml:space="preserve"
         style="font-style:normal;font-variant:normal;font-weight:normal;font-stretch:normal;font-size:32.06887054px;line-height:100%;font-family:'OCR A Extended';-inkscape-font-specification:'OCR A Extended';text-align:start;letter-spacing:0px;word-spacing:0px;text-anchor:start;fill:#e0e0e0;fill-opacity:1;stroke:none;stroke-width:1px;stroke-linecap:butt;stroke-linejoin:miter;stroke-opacity:1"
         x="-211.82227"
         y="893.63831"
         id="text5162"
         sodipodi:linespacing="100%"><tspan
           sodipodi:role="line"
           id="tspan5164"
           x="-211.82227"
           y="893.63831">Ceres</tspan></text>
    </a>
    <ellipse
       cy="250.61859"
       cx="-505.71078"
       id="circle5166"
       style="opacity:1;fill:none;fill-opacity:1;stroke:#9e9e9e;stroke-width:3.99999976;stroke-linecap:round;stroke-linejoin:miter;stroke-miterlimit:4;stroke-dasharray:none;stroke-dashoffset:0;stroke-opacity:0.50196078"
       rx="519.5155"
       ry="519.51581" />
    <a
       target="_top" xlink:href="mars.html"
       id="a6250">
      <ellipse
         ry="40.086102"
         rx="40.086079"
         transform="scale(-1,1)"
         cy="480.04974"
         cx="39.601681"
         id="circle5125"
         style="opacity:1;fill:#bf360c;fill-opacity:1;stroke:none;stroke-width:4;stroke-linecap:round;stroke-linejoin:miter;stroke-miterlimit:4;stroke-dasharray:none;stroke-dashoffset:0;stroke-opacity:1" />
    </a>
    <a
       target="_top" xlink:href="mars.html"
       id="a4259">
      <text
         sodipodi:linespacing="100%"
         id="text5151"
         y="490.4548"
         x="-167.09735"
         style="font-style:normal;font-variant:normal;font-weight:normal;font-stretch:normal;font-size:32.06887054px;line-height:100%;font-family:'OCR A Extended';-inkscape-font-specification:'OCR A Extended';text-align:start;letter-spacing:0px;word-spacing:0px;text-anchor:start;fill:#bf360c;fill-opacity:1;stroke:none;stroke-width:1px;stroke-linecap:butt;stroke-linejoin:miter;stroke-opacity:1"
         xml:space="preserve"><tspan
           y="490.4548"
           x="-167.09735"
           id="tspan5153"
           sodipodi:role="line">Mars</tspan></text>
    </a>
    <ellipse
       style="opacity:1;fill:none;fill-opacity:1;stroke:#9e9e9e;stroke-width:3.99999928;stroke-linecap:round;stroke-linejoin:miter;stroke-miterlimit:4;stroke-dasharray:none;stroke-dashoffset:0;stroke-opacity:0.50196078"
       id="circle5168"
       cx="-505.71078"
       cy="250.61859"
       rx="840.20404"
       ry="840.20453" />
    <a
       target="_top" xlink:href="jupiter.html"
       id="a6208">
      <ellipse
         ry="80.172203"
         rx="80.172157"
         style="opacity:1;fill:#e91e63;fill-opacity:1;stroke:none;stroke-width:4;stroke-linecap:round;stroke-linejoin:miter;stroke-miterlimit:4;stroke-dasharray:none;stroke-dashoffset:0;stroke-opacity:1"
         id="circle5170"
         cx="322.73941"
         cy="390.66537" />
    </a>
    <ellipse
       cy="390.66537"
       cx="322.73938"
       id="circle5172"
       style="opacity:1;fill:none;fill-opacity:1;stroke:#9e9e9e;stroke-width:3.99999976;stroke-linecap:round;stroke-linejoin:miter;stroke-miterlimit:4;stroke-dasharray:none;stroke-dashoffset:0;stroke-opacity:0.50196078"
       rx="118.65476"
       ry="118.65483" />
    <a
       target="_top" xlink:href="callisto.html"
       id="a6217">
      <ellipse
         ry="20.043051"
         rx="20.043039"
         inkscape:transform-center-y="-1.7390474e-005"
         inkscape:transform-center-x="-118.65479"
         cy="390.66537"
         cx="441.3942"
         id="circle5182"
         style="opacity:1;fill:#e0e0e0;fill-opacity:1;stroke:none;stroke-width:4;stroke-linecap:round;stroke-linejoin:miter;stroke-miterlimit:4;stroke-dasharray:none;stroke-dashoffset:0;stroke-opacity:1" />
    </a>
    <a
       target="_top" xlink:href="ganymede.html"
       id="a6211">
      <ellipse
         ry="20.043041"
         rx="20.043047"
         inkscape:transform-center-y="102.75812"
         transform="matrix(0.4999998,0.86602552,-0.86602529,0.5000002,0,0)"
         style="opacity:1;fill:#e0e0e0;fill-opacity:1;stroke:none;stroke-width:4;stroke-linecap:round;stroke-linejoin:miter;stroke-miterlimit:4;stroke-dasharray:none;stroke-dashoffset:0;stroke-opacity:1"
         id="circle5184"
         cx="618.35071"
         cy="-84.167931"
         inkscape:transform-center-x="-59.327397" />
    </a>
    <a
       target="_top" xlink:href="io.html"
       id="a6214">
      <ellipse
         ry="20.043041"
         rx="20.043047"
         inkscape:transform-center-x="59.327384"
         cy="-474.83319"
         cx="295.61118"
         id="circle5186"
         style="opacity:1;fill:#e0e0e0;fill-opacity:1;stroke:none;stroke-width:4;stroke-linecap:round;stroke-linejoin:miter;stroke-miterlimit:4;stroke-dasharray:none;stroke-dashoffset:0;stroke-opacity:1"
         transform="matrix(-0.4999998,0.86602552,-0.86602529,-0.5000002,0,0)"
         inkscape:transform-center-y="102.75811" />
    </a>
    <a
       target="_top" xlink:href="europa.html"
       id="a6220">
      <ellipse
         ry="20.043043"
         rx="20.043049"
         inkscape:transform-center-y="-102.75811"
         transform="matrix(0.49999979,-0.86602553,0.86602529,0.50000019,0,0)"
         style="opacity:1;fill:#e0e0e0;fill-opacity:1;stroke:none;stroke-width:4;stroke-linecap:round;stroke-linejoin:miter;stroke-miterlimit:4;stroke-dasharray:none;stroke-dashoffset:0;stroke-opacity:1"
         id="circle5188"
         cx="-58.301514"
         cy="474.83319"
         inkscape:transform-center-x="-59.327406" />
    </a>
    <a
       target="_top" xlink:href="io.html"
       id="a4283">
      <text
         xml:space="preserve"
         style="font-style:normal;font-variant:normal;font-weight:normal;font-stretch:normal;font-size:32.06887054px;line-height:100%;font-family:'OCR A Extended';-inkscape-font-specification:'OCR A Extended';text-align:center;letter-spacing:0px;word-spacing:0px;text-anchor:middle;fill:#e0e0e0;fill-opacity:1;stroke:none;stroke-width:1px;stroke-linecap:butt;stroke-linejoin:miter;stroke-opacity:1"
         x="229.35516"
         y="529.24017"
         id="text5192"
         sodipodi:linespacing="100%"><tspan
           sodipodi:role="line"
           id="tspan5194"
           x="229.35516"
           y="529.24017">Io</tspan></text>
    </a>
    <a
       target="_top" xlink:href="ganymede.html"
       id="a4287">
      <text
         xml:space="preserve"
         style="font-style:normal;font-variant:normal;font-weight:normal;font-stretch:normal;font-size:32.06887054px;line-height:100%;font-family:'OCR A Extended';-inkscape-font-specification:'OCR A Extended';text-align:center;letter-spacing:0px;word-spacing:0px;text-anchor:middle;fill:#e0e0e0;fill-opacity:1;stroke:none;stroke-width:1px;stroke-linecap:butt;stroke-linejoin:miter;stroke-opacity:1"
         x="371.36429"
         y="538.31049"
         id="text5200"
         sodipodi:linespacing="100%"><tspan
           sodipodi:role="line"
           id="tspan5202"
           x="371.36429"
           y="538.31049">Ganymede</tspan></text>
    </a>
    <a
       target="_top" xlink:href="callisto.html"
       id="a4291">
      <text
         sodipodi:linespacing="100%"
         id="text5204"
         y="365.12173"
         x="479.92621"
         style="font-style:normal;font-variant:normal;font-weight:normal;font-stretch:normal;font-size:32.06887054px;line-height:100%;font-family:'OCR A Extended';-inkscape-font-specification:'OCR A Extended';text-align:center;letter-spacing:0px;word-spacing:0px;text-anchor:middle;fill:#e0e0e0;fill-opacity:1;stroke:none;stroke-width:1px;stroke-linecap:butt;stroke-linejoin:miter;stroke-opacity:1"
         xml:space="preserve"><tspan
           y="365.12173"
           x="479.92621"
           id="tspan5206"
           sodipodi:role="line">Callisto</tspan></text>
    </a>
    <a
       target="_top" xlink:href="europa.html"
       id="a4295">
      <text
         xml:space="preserve"
         style="font-style:normal;font-variant:normal;font-weight:normal;font-stretch:normal;font-size:32.06887054px;line-height:100%;font-family:'OCR A Extended';-inkscape-font-specification:'OCR A Extended';text-align:center;letter-spacing:0px;word-spacing:0px;text-anchor:middle;fill:#e0e0e0;fill-opacity:1;stroke:none;stroke-width:1px;stroke-linecap:butt;stroke-linejoin:miter;stroke-opacity:1"
         x="405.66193"
         y="261.66193"
         id="text5208"
         sodipodi:linespacing="100%"><tspan
           sodipodi:role="line"
           id="tspan5210"
           x="405.66193"
           y="261.66193">Europa</tspan></text>
    </a>
    <ellipse
       cy="250.61859"
       cx="-505.71078"
       id="circle5212"
       style="opacity:1;fill:none;fill-opacity:1;stroke:#9e9e9e;stroke-width:3.99999928;stroke-linecap:round;stroke-linejoin:miter;stroke-miterlimit:4;stroke-dasharray:none;stroke-dashoffset:0;stroke-opacity:0.50196078"
       rx="1040.6344"
       ry="1040.635" />
    <a
       target="_top" xlink:href="saturn.html"
       id="a6226">
      <ellipse
         ry="80.172203"
         rx="80.172157"
         cy="735.9776"
         cx="414.80356"
         id="circle5246"
         style="opacity:1;fill:#ff9800;fill-opacity:1;stroke:none;stroke-width:4;stroke-linecap:round;stroke-linejoin:miter;stroke-miterlimit:4;stroke-dasharray:none;stroke-dashoffset:0;stroke-opacity:1" />
    </a>
    <ellipse
       style="opacity:1;fill:none;fill-opacity:1;stroke:#9e9e9e;stroke-width:15.99999905;stroke-linecap:round;stroke-linejoin:miter;stroke-miterlimit:4;stroke-dasharray:none;stroke-dashoffset:0;stroke-opacity:0.50196078"
       id="circle5248"
       cx="414.80353"
       cy="735.9776"
       rx="118.65476"
       ry="118.65483" />
    <a
       target="_top" xlink:href="titan.html"
       id="a6229">
      <ellipse
         ry="20.043051"
         rx="20.043039"
         style="opacity:1;fill:#e0e0e0;fill-opacity:1;stroke:none;stroke-width:4;stroke-linecap:round;stroke-linejoin:miter;stroke-miterlimit:4;stroke-dasharray:none;stroke-dashoffset:0;stroke-opacity:1"
         id="circle5250"
         cx="296.17722"
         cy="738.57532"
         inkscape:transform-center-x="-118.6548" />
    </a>
    <a
       target="_top" xlink:href="titan.html"
       id="a4303">
      <text
         xml:space="preserve"
         style="font-style:normal;font-variant:normal;font-weight:normal;font-stretch:normal;font-size:32.06887054px;line-height:100%;font-family:'OCR A Extended';-inkscape-font-specification:'OCR A Extended';text-align:center;letter-spacing:0px;word-spacing:0px;text-anchor:middle;fill:#e0e0e0;fill-opacity:1;stroke:none;stroke-width:1px;stroke-linecap:butt;stroke-linejoin:miter;stroke-opacity:1"
         x="284.1723"
         y="784.19226"
         id="text5266"
         sodipodi:linespacing="100%"><tspan
           sodipodi:role="line"
           id="tspan5268"
           x="284.1723"
           y="784.19226">Titan</tspan></text>
    </a>
    <a
       target="_top" xlink:href="jupiter.html"
       id="a4279">
      <text
         xml:space="preserve"
         style="font-style:normal;font-variant:normal;font-weight:normal;font-stretch:normal;font-size:32.06887054px;line-height:100%;font-family:'OCR A Extended';-inkscape-font-specification:'OCR A Extended';text-align:center;letter-spacing:0px;word-spacing:0px;text-anchor:middle;fill:#000000;fill-opacity:1;stroke:none;stroke-width:1px;stroke-linecap:butt;stroke-linejoin:miter;stroke-opacity:1"
         x="321.87827"
         y="401.0704"
         id="text5274"
         sodipodi:linespacing="100%"><tspan
           sodipodi:role="line"
           id="tspan5276"
           x="321.87827"
           y="401.0704">Jupiter</tspan></text>
    </a>
    <a
       target="_top" xlink:href="saturn.html"
       id="a4299">
      <text
         sodipodi:linespacing="100%"
         id="text5278"
         y="746.38257"
         x="414.6312"
         style="font-style:normal;font-variant:normal;font-weight:normal;font-stretch:normal;font-size:32.06887054px;line-height:100%;font-family:'OCR A Extended';-inkscape-font-specification:'OCR A Extended';text-align:center;letter-spacing:0px;word-spacing:0px;text-anchor:middle;fill:#000000;fill-opacity:1;stroke:none;stroke-width:1px;stroke-linecap:butt;stroke-linejoin:miter;stroke-opacity:1"
         xml:space="preserve"><tspan
           y="746.38257"
           x="414.6312"
           id="tspan5280"
           sodipodi:role="line">Saturn</tspan></text>
    </a>
    <ellipse
       style="opacity:1;fill:none;fill-opacity:1;stroke:#9e9e9e;stroke-width:3.99999928;stroke-linecap:round;stroke-linejoin:miter;stroke-miterlimit:4;stroke-dasharray:none;stroke-dashoffset:0;stroke-opacity:0.50196078"
       id="circle5282"
       cx="-505.71078"
       cy="250.61859"
       rx="1241.0648"
       ry="1241.0656" />
    <a
       target="_top" xlink:href="uranus.html"
       id="a6223">
      <ellipse
         ry="80.172203"
         rx="80.172157"
         style="opacity:1;fill:#4caf50;fill-opacity:1;stroke:none;stroke-width:4;stroke-linecap:round;stroke-linejoin:miter;stroke-miterlimit:4;stroke-dasharray:none;stroke-dashoffset:0;stroke-opacity:1"
         id="circle5284"
         cx="731.32794"
         cy="350.31082" />
    </a>
    <a
       target="_top" xlink:href="uranus.html"
       id="a4307">
      <text
         xml:space="preserve"
         style="font-style:normal;font-variant:normal;font-weight:normal;font-stretch:normal;font-size:32.06887054px;line-height:100%;font-family:'OCR A Extended';-inkscape-font-specification:'OCR A Extended';text-align:center;letter-spacing:0px;word-spacing:0px;text-anchor:middle;fill:#000000;fill-opacity:1;stroke:none;stroke-width:1px;stroke-linecap:butt;stroke-linejoin:miter;stroke-opacity:1"
         x="731.15564"
         y="360.71588"
         id="text5294"
         sodipodi:linespacing="100%"><tspan
           sodipodi:role="line"
           id="tspan5296"
           x="731.15564"
           y="360.71588">Uranus</tspan></text>
    </a>
    <ellipse
       cy="250.61859"
       cx="-505.71078"
       id="circle5298"
       style="opacity:1;fill:none;fill-opacity:1;stroke:#9e9e9e;stroke-width:3.99999905;stroke-linecap:round;stroke-linejoin:miter;stroke-miterlimit:4;stroke-dasharray:none;stroke-dashoffset:0;stroke-opacity:0.50196078"
       rx="1441.4951"
       ry="1441.496" />
    <a
       target="_top" xlink:href="neptune.html"
       id="a6235">
      <ellipse
         ry="80.172203"
         rx="80.172157"
         style="opacity:1;fill:#3f51b5;fill-opacity:1;stroke:none;stroke-width:4;stroke-linecap:round;stroke-linejoin:miter;stroke-miterlimit:4;stroke-dasharray:none;stroke-dashoffset:0;stroke-opacity:1"
         id="circle5300"
         cx="875.31024"
         cy="660.87793" />
    </a>
    <ellipse
       cy="660.87793"
       cx="875.31018"
       id="circle5302"
       style="opacity:1;fill:none;fill-opacity:1;stroke:#9e9e9e;stroke-width:3.99999976;stroke-linecap:round;stroke-linejoin:miter;stroke-miterlimit:4;stroke-dasharray:none;stroke-dashoffset:0;stroke-opacity:0.50196078"
       rx="118.65476"
       ry="118.65483" />
    <a
       target="_top" xlink:href="triton.html"
       id="a6232">
      <ellipse
         ry="20.043051"
         rx="20.043039"
         inkscape:transform-center-y="-1.4756496e-005"
         inkscape:transform-center-x="-118.6547"
         cy="574.38269"
         cx="794.08478"
         id="circle5304"
         style="opacity:1;fill:#e0e0e0;fill-opacity:1;stroke:none;stroke-width:4;stroke-linecap:round;stroke-linejoin:miter;stroke-miterlimit:4;stroke-dasharray:none;stroke-dashoffset:0;stroke-opacity:1" />
    </a>
    <a
       target="_top" xlink:href="triton.html"
       id="a4315">
      <text
         sodipodi:linespacing="100%"
         id="text5306"
         y="550.73212"
         x="793.44934"
         style="font-style:normal;font-variant:normal;font-weight:normal;font-stretch:normal;font-size:32.06887054px;line-height:100%;font-family:'OCR A Extended';-inkscape-font-specification:'OCR A Extended';text-align:center;letter-spacing:0px;word-spacing:0px;text-anchor:middle;fill:#e0e0e0;fill-opacity:1;stroke:none;stroke-width:1px;stroke-linecap:butt;stroke-linejoin:miter;stroke-opacity:1"
         xml:space="preserve"><tspan
           y="550.73212"
           x="793.44934"
           id="tspan5308"
           sodipodi:role="line">Triton</tspan></text>
    </a>
    <a
       target="_top" xlink:href="neptune.html"
       id="a4311">
      <text
         xml:space="preserve"
         style="font-style:normal;font-variant:normal;font-weight:normal;font-stretch:normal;font-size:32.06887054px;line-height:100%;font-family:'OCR A Extended';-inkscape-font-specification:'OCR A Extended';text-align:center;letter-spacing:0px;word-spacing:0px;text-anchor:middle;fill:#000000;fill-opacity:1;stroke:none;stroke-width:1px;stroke-linecap:butt;stroke-linejoin:miter;stroke-opacity:1"
         x="875.13794"
         y="671.2829"
         id="text5310"
         sodipodi:linespacing="100%"><tspan
           sodipodi:role="line"
           id="tspan5312"
           x="875.13794"
           y="671.2829">Neptune</tspan></text>
    </a>
    <a
       target="_top" xlink:href="kuiper.html"
       id="a6238">
      <ellipse
         ry="1637.915"
         rx="1637.9142"
         cy="-305.2594"
         cx="-474.73135"
         id="circle5322"
         style="opacity:1;fill:none;fill-opacity:1;stroke:#607d8b;stroke-width:63.99999619;stroke-linecap:round;stroke-linejoin:miter;stroke-miterlimit:4;stroke-dasharray:none;stroke-dashoffset:0;stroke-opacity:0.50196078"
         transform="matrix(0.9938074,0.11111641,0.1111163,-0.99380741,0,0)" />
    </a>
    <a
       target="_top" xlink:href="kuiper.html"
       id="a4323">
      <path
         id="text5324"
         transform="translate(-691.42859,35.219349)"
         d="M 1794.1973 400.42773 L 1791.1641 425.08594 L 1797.7656 425.89648 C 1798.4441 425.97994 1799.0538 425.8197 1799.5957 425.41406 C 1800.1206 424.98666 1800.4244 424.43239 1800.5078 423.75391 C 1800.5913 423.07543 1800.4295 422.47559 1800.0215 421.95312 C 1799.5965 421.40889 1799.0457 421.09517 1798.3672 421.01172 L 1796.6504 420.80078 L 1797.2598 415.85742 L 1828.5176 419.70312 C 1829.1961 419.78658 1829.8073 419.61447 1830.3516 419.18945 C 1830.8764 418.76205 1831.1817 418.19982 1831.2676 417.50195 C 1831.3486 416.84286 1831.1869 416.24303 1830.7812 415.70117 C 1830.3562 415.15693 1829.8035 414.84322 1829.125 414.75977 L 1797.8672 410.91406 L 1798.4746 405.9707 L 1800.248 406.18945 C 1800.9071 406.27052 1801.5104 406.09885 1802.0547 405.67383 C 1802.6013 405.22942 1802.9146 404.66676 1802.998 403.98828 C 1803.0791 403.32919 1802.9174 402.72935 1802.5117 402.1875 C 1802.0867 401.64326 1801.5359 401.32955 1800.8574 401.24609 L 1794.1973 400.42773 z M 1825.2656 441.10156 C 1824.7844 441.12777 1824.3422 441.30263 1823.9395 441.62891 C 1823.386 442.0418 1823.0613 442.5872 1822.9629 443.26367 L 1820.457 460.48438 L 1789.2324 455.94141 C 1788.5753 455.8458 1787.9695 456.00507 1787.416 456.41797 C 1786.8625 456.83086 1786.539 457.36629 1786.4434 458.02344 C 1786.3478 458.68058 1786.507 459.2844 1786.9199 459.83789 C 1787.3328 460.39138 1787.8663 460.71689 1788.5234 460.8125 L 1824.6191 466.06445 L 1827.832 443.97266 C 1827.9305 443.29618 1827.7842 442.68154 1827.3906 442.13086 C 1826.9805 441.55804 1826.4362 441.22342 1825.7598 441.125 C 1825.5906 441.1004 1825.426 441.09283 1825.2656 441.10156 z M 1786.3906 471.66016 C 1785.9054 471.67512 1785.4497 471.83943 1785.0254 472.1543 C 1784.4436 472.55162 1784.0958 473.08759 1783.9824 473.76172 L 1780.2812 495.77734 L 1818.6777 502.23242 L 1822.3809 480.2168 C 1822.4942 479.54267 1822.3598 478.92643 1821.9785 478.36719 C 1821.5812 477.78544 1821.0452 477.43756 1820.3711 477.32422 C 1819.697 477.21087 1819.0881 477.35597 1818.5449 477.75977 C 1817.9824 478.16033 1817.6453 478.68888 1817.5352 479.34375 L 1814.6406 496.5625 L 1802.7383 494.56055 L 1803.9805 487.16406 C 1804.0938 486.48993 1803.9487 485.88307 1803.5449 485.33984 C 1803.1444 484.77736 1802.5977 484.4369 1801.9043 484.32031 C 1801.2494 484.21021 1800.6406 484.3553 1800.0781 484.75586 C 1799.5156 485.15642 1799.1804 485.68497 1799.0703 486.33984 L 1797.8262 493.73633 L 1786.0098 491.74805 L 1788.8945 474.58789 C 1789.0079 473.91376 1788.8654 473.29491 1788.4648 472.73242 C 1788.0675 472.15068 1787.5396 471.80542 1786.8848 471.69531 C 1786.7162 471.66698 1786.5524 471.65517 1786.3906 471.66016 z M 1786.0957 508.27734 C 1784.1608 508.27696 1782.3449 508.85341 1780.6484 510.00586 C 1778.3901 511.52327 1777.0073 513.61459 1776.498 516.28125 L 1773.6738 531.07227 L 1811.918 538.37695 L 1814.7422 523.58398 C 1815.2514 520.91732 1814.7356 518.46347 1813.1953 516.2207 C 1811.6395 513.95508 1809.528 512.56781 1806.8613 512.05859 L 1804.7324 511.65234 C 1801.9123 511.11382 1799.2651 511.75021 1796.791 513.56445 C 1795.1979 510.97356 1792.9718 509.40523 1790.1133 508.85938 L 1788.0703 508.4707 C 1787.3989 508.34248 1786.7407 508.27747 1786.0957 508.27734 z M 1786.1367 513.32422 C 1786.4599 513.3238 1786.7893 513.35581 1787.125 513.41992 L 1789.1113 513.79883 C 1790.4351 514.05161 1791.4857 514.74822 1792.2617 515.89062 C 1793.0186 517.02936 1793.2726 518.25209 1793.0234 519.55664 L 1791.1426 529.39844 L 1779.4316 527.16211 L 1781.3105 517.32031 C 1781.5633 515.99657 1782.2597 514.95609 1783.3984 514.19922 C 1784.2552 513.61717 1785.1671 513.32548 1786.1367 513.32422 z M 1802.9141 516.52734 C 1803.2373 516.52692 1803.5666 516.55894 1803.9023 516.62305 L 1805.918 517.00781 C 1807.2417 517.26059 1808.2903 517.95916 1809.0664 519.10156 C 1809.8233 520.2403 1810.0772 521.46107 1809.8281 522.76562 L 1807.9609 532.55078 L 1796.2188 530.30859 L 1798.0879 520.52344 C 1798.3407 519.1997 1799.0351 518.15922 1800.1738 517.40234 C 1801.0306 516.8203 1801.9445 516.52861 1802.9141 516.52734 z M 1769.7109 578.17969 C 1768.2686 578.11981 1766.885 578.49712 1765.5625 579.3125 C 1763.8036 580.38067 1762.6929 581.89417 1762.2285 583.85156 L 1758.2109 600.7832 L 1793.7012 609.20312 C 1794.3663 609.36091 1794.9909 609.26722 1795.5742 608.92383 C 1796.143 608.55693 1796.5063 608.04209 1796.6641 607.37695 C 1796.8218 606.71182 1796.7282 606.0872 1796.3848 605.50391 C 1796.0269 604.8971 1795.5147 604.51521 1794.8496 604.35742 L 1776.5781 600.02148 L 1777.3965 596.57227 L 1799.4512 589.91211 C 1800.4236 589.62088 1801.0226 588.99902 1801.248 588.04883 C 1801.3968 587.4217 1801.3018 586.80737 1800.9629 586.20508 C 1800.605 585.59827 1800.1032 585.21773 1799.457 585.06445 C 1798.9629 584.94724 1798.4334 584.98307 1797.8672 585.16992 L 1778.7227 590.98633 L 1779.4453 587.93555 C 1779.9142 585.95915 1779.6117 584.10122 1778.5391 582.36133 C 1777.4474 580.61693 1775.9036 579.50851 1773.9082 579.03516 L 1771.1719 578.38477 C 1770.6778 578.26755 1770.1917 578.19965 1769.7109 578.17969 z M 1769.5469 583.10547 C 1769.7071 583.11212 1769.8708 583.13438 1770.0371 583.17383 L 1772.8301 583.83789 C 1773.4952 583.99568 1774.0087 584.36728 1774.3711 584.95508 C 1774.719 585.51937 1774.814 586.13369 1774.6562 586.79883 L 1771.7754 598.94336 L 1764.1934 597.14453 L 1767.0742 585 C 1767.232 584.33487 1767.6023 583.83167 1768.1855 583.48828 C 1768.6121 583.21311 1769.0661 583.08551 1769.5469 583.10547 z M 1757.5078 612.02539 C 1757.0231 611.99742 1756.5559 612.12033 1756.1055 612.39648 C 1755.4909 612.74086 1755.0982 613.24477 1754.9258 613.90625 L 1749.293 635.50781 L 1786.9688 645.33008 L 1792.6016 623.72852 C 1792.774 623.06703 1792.6956 622.44035 1792.3652 621.84961 C 1792.0209 621.23504 1791.517 620.84238 1790.8555 620.66992 C 1790.194 620.49746 1789.5748 620.58718 1788.998 620.94141 C 1788.4024 621.29071 1788.021 621.7871 1787.8535 622.42969 L 1783.4492 639.32617 L 1771.7676 636.28125 L 1773.6602 629.02344 C 1773.8326 628.36196 1773.7429 627.74279 1773.3887 627.16602 C 1773.0394 626.57034 1772.5241 626.18324 1771.8438 626.00586 C 1771.2012 625.83833 1770.582 625.92999 1769.9863 626.2793 C 1769.3907 626.6286 1769.0093 627.125 1768.8418 627.76758 L 1766.9492 635.02539 L 1755.3535 632.00195 L 1759.7441 615.16211 C 1759.9166 614.50063 1759.8278 613.87106 1759.4785 613.27539 C 1759.1341 612.66082 1758.6406 612.27105 1757.998 612.10352 C 1757.8327 612.0604 1757.6694 612.03471 1757.5078 612.02539 z M 1751.4121 647.81445 C 1750.2248 647.83363 1749.0647 648.15898 1747.9336 648.78906 C 1746.1292 649.77841 1744.9528 651.23888 1744.4023 653.17383 L 1739.625 669.96875 L 1774.707 679.94922 C 1775.3645 680.13626 1775.9944 680.06261 1776.5977 679.72656 C 1777.1821 679.38517 1777.5713 678.87551 1777.7637 678.19922 C 1777.9507 677.54171 1777.8831 676.92287 1777.5605 676.34375 C 1777.2245 675.7405 1776.7278 675.34525 1776.0703 675.1582 L 1764.1211 671.75977 L 1767.5371 659.75586 C 1768.0929 657.80213 1767.8736 655.93211 1766.8789 654.14648 C 1765.8842 652.36086 1764.4088 651.19056 1762.4551 650.63477 L 1753.5801 648.10938 C 1752.8474 647.90095 1752.1245 647.80295 1751.4121 647.81445 z M 1751.7461 652.75391 C 1751.9059 652.76764 1752.068 652.79699 1752.2324 652.84375 L 1761.1094 655.36914 C 1761.7669 655.55619 1762.2636 655.95144 1762.5996 656.55469 C 1762.9169 657.15259 1762.9844 657.77144 1762.8027 658.41016 L 1759.3887 670.41406 L 1745.7773 666.54102 L 1749.1934 654.53711 C 1749.3751 653.89839 1749.7659 653.41222 1750.3691 653.07617 C 1750.8075 652.82013 1751.2667 652.7127 1751.7461 652.75391 z M 1738.3809 681.1543 C 1737.9084 681.10816 1737.4407 681.21279 1736.9785 681.46875 C 1736.368 681.79137 1735.9674 682.26107 1735.7773 682.87695 L 1729.9043 701.91406 C 1729.7028 702.56727 1729.7633 703.19806 1730.0859 703.80859 C 1730.4143 704.40047 1730.9141 704.80051 1731.5859 705.00781 C 1732.2205 705.2036 1732.8405 705.14966 1733.4453 704.8457 C 1734.0558 704.52308 1734.4606 704.03407 1734.6621 703.38086 L 1736.8906 696.1582 L 1764.6348 704.71875 L 1762.4062 711.94141 C 1762.2047 712.59461 1762.2653 713.2254 1762.5879 713.83594 C 1762.8976 714.42205 1763.378 714.81604 1764.0312 715.01758 C 1764.6845 715.21912 1765.3132 715.16919 1765.918 714.86523 C 1766.5098 714.53686 1766.9078 714.04579 1767.1094 713.39258 L 1772.9824 694.35547 C 1773.1782 693.72092 1773.1243 693.10087 1772.8203 692.49609 C 1772.4977 691.88556 1772.0087 691.48084 1771.3555 691.2793 C 1770.7023 691.07776 1770.0802 691.14037 1769.4883 691.46875 C 1768.8835 691.77271 1768.4808 692.25109 1768.2793 692.9043 L 1766.0859 700.01562 L 1738.3418 691.45508 L 1740.5371 684.3457 C 1740.7329 683.71116 1740.6683 683.0871 1740.3457 682.47656 C 1740.0044 681.86027 1739.5067 681.45154 1738.8535 681.25 C 1738.6949 681.20105 1738.5384 681.16968 1738.3809 681.1543 z M 1727.25 715.35547 C 1726.9288 715.3772 1726.6134 715.46462 1726.3047 715.61914 C 1725.6933 715.90965 1725.2804 716.37875 1725.0645 717.02734 C 1724.8485 717.67594 1724.8941 718.31021 1725.2031 718.92773 C 1725.5183 719.52672 1726.0106 719.9361 1726.6777 720.1582 L 1754.2246 729.33008 C 1754.8547 729.53985 1755.315 729.95115 1755.6055 730.5625 C 1755.9021 731.15532 1755.9425 731.77524 1755.7266 732.42383 L 1752.543 741.98633 C 1752.3332 742.61639 1751.9291 743.08909 1751.3301 743.4043 C 1750.7126 743.71334 1750.0979 743.7661 1749.4863 743.5625 L 1721.8828 734.37305 C 1721.2528 734.16328 1720.6292 734.21245 1720.0117 734.52148 C 1719.3942 734.83052 1718.9813 735.29963 1718.7715 735.92969 C 1718.5617 736.55975 1718.6197 737.18686 1718.9473 737.81055 C 1719.2563 738.42807 1719.7362 738.84461 1720.3848 739.06055 L 1747.9316 748.23242 C 1749.8589 748.87406 1751.7366 748.73702 1753.5645 747.82227 C 1755.3923 746.90751 1756.6259 745.48584 1757.2676 743.55859 L 1760.4512 733.99609 C 1761.0866 732.08738 1760.9372 730.21684 1760.0039 728.38281 C 1759.0768 726.53025 1757.6499 725.28422 1755.7227 724.64258 L 1728.2324 715.48828 C 1727.8989 715.37723 1727.5712 715.33374 1727.25 715.35547 z M 1715.8691 749.19531 C 1715.5538 749.20699 1715.2379 749.28085 1714.9199 749.41602 C 1714.2839 749.68636 1713.8494 750.14345 1713.6191 750.78711 C 1713.3889 751.43077 1713.394 752.08573 1713.6328 752.75195 L 1720.9863 772.12109 L 1710.0352 768.20312 C 1709.3915 767.9729 1708.766 768.00866 1708.1602 768.31055 C 1707.5425 768.58747 1707.1189 769.04775 1706.8887 769.69141 C 1706.6584 770.33506 1706.691 770.96955 1706.9863 771.59375 C 1707.2882 772.19956 1707.7696 772.62062 1708.4316 772.85742 L 1740.4043 784.29297 C 1741.048 784.52319 1741.6805 784.49062 1742.3047 784.19531 C 1742.9105 783.89343 1743.3252 783.42996 1743.5488 782.80469 C 1743.7791 782.16103 1743.7542 781.54064 1743.4707 780.94141 C 1743.1754 780.3172 1742.7042 779.88843 1742.0605 779.6582 L 1731 775.70312 L 1749.0332 765.47461 C 1749.6338 765.12936 1750.0459 764.6448 1750.2695 764.01953 C 1750.5063 763.35748 1750.4559 762.71663 1750.1172 762.09766 C 1749.7851 761.4603 1749.3139 761.03348 1748.707 760.81641 C 1748.1002 760.59934 1747.5213 760.65104 1746.9707 760.97266 L 1726.416 772.59961 L 1718.1445 750.66211 C 1717.8992 750.01428 1717.4542 749.57593 1716.8105 749.3457 C 1716.4979 749.23388 1716.1845 749.18364 1715.8691 749.19531 z "
         style="font-style:normal;font-variant:normal;font-weight:normal;font-stretch:normal;font-size:60px;line-height:100%;font-family:'OCR A Extended';-inkscape-font-specification:'OCR A Extended';text-align:end;letter-spacing:0px;word-spacing:0px;text-anchor:end;fill:#ffffff;fill-opacity:1;stroke:none;stroke-width:1px;stroke-linecap:butt;stroke-linejoin:miter;stroke-opacity:1" />
    </a>
    <ellipse
       cy="350.31082"
       cx="731.32782"
       id="circle5334"
       style="opacity:1;fill:none;fill-opacity:1;stroke:#9e9e9e;stroke-width:3.99999976;stroke-linecap:round;stroke-linejoin:miter;stroke-miterlimit:4;stroke-dasharray:none;stroke-dashoffset:0;stroke-opacity:0.50196078"
       rx="118.65476"
       ry="118.65483" />
    <a
       target="_top" xlink:href="pluto.html"
       id="a6241">
      <ellipse
         ry="40.086102"
         rx="40.086079"
         transform="scale(-1,1)"
         cy="242.72119"
         cx="-1132.1843"
         id="circle5336"
         style="opacity:1;fill:#e0e0e0;fill-opacity:1;stroke:none;stroke-width:4;stroke-linecap:round;stroke-linejoin:miter;stroke-miterlimit:4;stroke-dasharray:none;stroke-dashoffset:0;stroke-opacity:1" />
    </a>
    <a
       target="_top" xlink:href="pluto.html"
       id="a4319">
      <text
         sodipodi:linespacing="100%"
         id="text5338"
         y="253.1263"
         x="985.3974"
         style="font-style:normal;font-variant:normal;font-weight:normal;font-stretch:normal;font-size:32.06887054px;line-height:100%;font-family:'OCR A Extended';-inkscape-font-specification:'OCR A Extended';text-align:start;letter-spacing:0px;word-spacing:0px;text-anchor:start;fill:#e0e0e0;fill-opacity:1;stroke:none;stroke-width:1px;stroke-linecap:butt;stroke-linejoin:miter;stroke-opacity:1"
         xml:space="preserve"><tspan
           y="253.1263"
           x="985.3974"
           id="tspan5340"
           sodipodi:role="line">Pluto</tspan></text>
    </a>
    <text
       sodipodi:linespacing="100%"
       id="text4408"
       y="1028.5651"
       x="-2522.9341"
       style="font-style:normal;font-variant:normal;font-weight:normal;font-stretch:normal;font-size:23.63872719px;line-height:100%;font-family:'OCR A Extended';-inkscape-font-specification:'OCR A Extended';text-align:start;letter-spacing:0px;word-spacing:0px;text-anchor:start;fill:#000000;fill-opacity:1;stroke:none;stroke-width:1px;stroke-linecap:butt;stroke-linejoin:miter;stroke-opacity:1"
       xml:space="preserve"><tspan
         style="text-align:start;text-anchor:start;fill:#795548"
         y="1028.5651"
         x="-2522.9341"
         sodipodi:role="line"
         id="tspan4434">Mercury</tspan><tspan
         style="text-align:start;text-anchor:start;fill:#ffeb3b"
         y="1052.0002"
         x="-2522.9341"
         sodipodi:role="line"
         id="tspan4438">Venus</tspan><tspan
         style="text-align:start;text-anchor:start;fill:#4caf50"
         y="1075.4353"
         x="-2522.9341"
         sodipodi:role="line"
         id="tspan4440">Earth</tspan><tspan
         style="text-align:start;text-anchor:start;fill:#4caf50"
         y="1098.8705"
         x="-2522.9341"
         sodipodi:role="line"
         id="tspan4442"> &gt; Luna</tspan><tspan
         style="text-align:start;text-anchor:start;fill:#bf360c"
         y="1122.3057"
         x="-2522.9341"
         sodipodi:role="line"
         id="tspan4444">Mars</tspan><tspan
         style="text-align:start;text-anchor:start;fill:#757575"
         y="1145.7407"
         x="-2522.9341"
         sodipodi:role="line"
         id="tspan4446">Ceres</tspan><tspan
         style="text-align:start;text-anchor:start;fill:#e91e63"
         y="1169.1759"
         x="-2522.9341"
         sodipodi:role="line"
         id="tspan4448">Jupiter</tspan><tspan
         style="text-align:start;text-anchor:start;fill:#e91e63"
         y="1192.6111"
         x="-2522.9341"
         sodipodi:role="line"
         id="tspan4458"> &gt; Io</tspan><tspan
         style="text-align:start;text-anchor:start;fill:#e91e63"
         y="1216.0461"
         x="-2522.9341"
         sodipodi:role="line"
         id="tspan4460"> &gt; Ganymede</tspan><tspan
         style="text-align:start;text-anchor:start;fill:#e91e63"
         y="1239.4813"
         x="-2522.9341"
         sodipodi:role="line"
         id="tspan4462"> &gt; Callisto</tspan><tspan
         style="text-align:start;text-anchor:start;fill:#e91e63"
         y="1262.9165"
         x="-2522.9341"
         sodipodi:role="line"
         id="tspan4464"> &gt; Europe</tspan><tspan
         style="text-align:start;text-anchor:start;fill:#ff9800"
         y="1286.3517"
         x="-2522.9341"
         sodipodi:role="line"
         id="tspan4450">Saturn</tspan><tspan
         style="text-align:start;text-anchor:start;fill:#ff9800"
         y="1309.7867"
         x="-2522.9341"
         sodipodi:role="line"
         id="tspan4466"> &gt; Titan</tspan><tspan
         style="text-align:start;text-anchor:start;fill:#4caf50"
         y="1333.2219"
         x="-2522.9341"
         sodipodi:role="line"
         id="tspan4452">Uranus</tspan><tspan
         style="text-align:start;text-anchor:start;fill:#3f51b5"
         y="1356.6571"
         x="-2522.9341"
         sodipodi:role="line"
         id="tspan4454">Neptune</tspan><tspan
         style="text-align:start;text-anchor:start;fill:#3f51b5"
         y="1380.0922"
         x="-2522.9341"
         sodipodi:role="line"
         id="tspan4468"> &gt; Triton</tspan><tspan
         style="text-align:start;text-anchor:start;fill:#607d8b"
         y="1403.5273"
         x="-2522.9341"
         sodipodi:role="line"
         id="tspan4456">Pluto</tspan></text>
    <text
       sodipodi:linespacing="100%"
       id="text5408"
       y="877.823"
       x="1071.2552"
       style="font-style:normal;font-variant:normal;font-weight:normal;font-stretch:normal;font-size:32.06887054px;line-height:100%;font-family:'OCR A Extended';-inkscape-font-specification:'OCR A Extended';text-align:start;letter-spacing:0px;word-spacing:0px;text-anchor:start;fill:#e0e0e0;fill-opacity:1;stroke:none;stroke-width:1px;stroke-linecap:butt;stroke-linejoin:miter;stroke-opacity:1"
       xml:space="preserve"><tspan
         y="877.823"
         x="1071.2552"
         id="tspan5410"
         sodipodi:role="line">Here be</tspan><tspan
         y="909.89185"
         x="1071.2552"
         sodipodi:role="line"
         id="tspan5412">dragons</tspan><tspan
         y="941.96075"
         x="1071.2552"
         sodipodi:role="line"
         id="tspan5416">------&gt;</tspan></text>
    <text
       xml:space="preserve"
       style="font-style:normal;font-variant:normal;font-weight:normal;font-stretch:normal;font-size:13.59328938px;line-height:100%;font-family:'OCR A Extended';-inkscape-font-specification:'OCR A Extended';text-align:start;letter-spacing:0px;word-spacing:0px;text-anchor:start;fill:#e0e0e0;fill-opacity:1;stroke:none;stroke-width:1px;stroke-linecap:butt;stroke-linejoin:miter;stroke-opacity:1"
       x="1069.4863"
       y="953.93408"
       id="text5420"
       sodipodi:linespacing="100%"><tspan
         id="tspan5426"
         sodipodi:role="line"
         x="1069.4863"
         y="953.93408">(and Oort Clouds)</tspan></text>
    <text
       xml:space="preserve"
       style="font-style:normal;font-variant:normal;font-weight:normal;font-stretch:normal;font-size:60px;line-height:100%;font-family:'OCR A Extended';-inkscape-font-specification:'OCR A Extended';text-align:center;letter-spacing:0px;word-spacing:0px;text-anchor:middle;fill:#ffffff;fill-opacity:1;stroke:none;stroke-width:1px;stroke-linecap:butt;stroke-linejoin:miter;stroke-opacity:1"
       id="text5433"
       sodipodi:linespacing="100%"
       x="-180.94066"
       y="148.02438">INNER PLANETS</text>
    <text
       y="148.02438"
       x="629.80573"
       sodipodi:linespacing="100%"
       id="text5440"
       style="font-style:normal;font-variant:normal;font-weight:normal;font-stretch:normal;font-size:60px;line-height:100%;font-family:'OCR A Extended';-inkscape-font-specification:'OCR A Extended';text-align:center;letter-spacing:0px;word-spacing:0px;text-anchor:middle;fill:#ffffff;fill-opacity:1;stroke:none;stroke-width:1px;stroke-linecap:butt;stroke-linejoin:miter;stroke-opacity:1"
       xml:space="preserve">OUTER PLANETS</text>
  </g>
</svg>
